<svg width="384" height="85" viewBox="0 0 384 85" fill="none" xmlns="http://www.w3.org/2000/svg">
<g clip-path="url(#clip0_1_1528)">
<path fill-rule="evenodd" clip-rule="evenodd" d="M67.6547 43.2787C67.3264 52.7236 61.6934 60.8133 53.6461 64.6781H46.5094C47.8118 58.7591 50.0671 51.093 50.0671 51.093L54.6731 47.1117L55.1602 38.3762L55.8697 32.849L49.3471 40.1974L45.62 38.4503L35.0526 48.8588L40.8445 36.9467L39.0974 35.6761C39.0974 35.6761 40.6116 31.536 40.7704 31.0595C40.9292 30.583 44.847 20.2169 44.2646 19.7827C43.6823 19.338 33.2949 35.4326 33.2949 35.4326L30.3619 33.5266L22.0181 43.6916L19.8686 41.6269C19.8686 41.6269 19.2333 42.8234 18.3651 44.4222C18.3015 43.7552 18.2698 43.0775 18.2698 42.3892C18.2698 42.3045 18.2698 42.2092 18.2804 42.1245L20.271 39.1703L22.0181 41.7116L30.1183 31.6948L33.6231 32.8066L44.4235 18.3533L53.4872 33.929L55.8697 31.3878L66.6805 42.0292L67.6547 43.2787Z" fill="#2B688E"/>
<path fill-rule="evenodd" clip-rule="evenodd" d="M28.4135 46.9213C27.6935 48.5519 27.4499 51.6332 27.3652 52.1732C27.2911 52.7238 25.4381 53.5285 23.4157 53.8991C22.5157 54.0579 21.9227 54.2379 21.4356 54.5026C21.0121 53.7509 20.6309 52.9779 20.2815 52.1732C21.7427 51.2096 23.3522 50.6696 24.0616 50.7225C25.2687 50.8178 26.7193 45.3859 27.3652 44.6659C27.3652 44.6659 30.0229 39.3187 30.9865 37.4233C31.9606 35.5174 29.1335 45.3012 28.4135 46.9213Z" fill="#2B688E"/>
<path fill-rule="evenodd" clip-rule="evenodd" d="M41.4267 50.0872C41.0667 50.4896 40.262 53.5179 39.5843 53.465C38.9066 53.412 36.7572 54.3227 36.0901 55.7309C35.4124 57.1392 32.9559 62.4335 32.8606 62.6346C32.7759 62.8358 36.4501 57.0439 37.1383 56.3556C37.8372 55.678 38.1019 55.4239 39.2243 55.2227C40.3467 55.0215 41.3737 54.5662 41.4161 54.2697C41.4585 53.9732 41.5961 52.2579 41.9985 51.3473C42.4008 50.4367 43.9679 44.9942 43.4385 46.053C42.9091 47.1119 41.4267 50.0872 41.4267 50.0872Z" fill="#2B688E"/>
<path d="M33.8454 11.0049C34.0783 11.3013 34.3536 11.5025 34.6713 11.6084C34.9783 11.7143 35.3172 11.7249 35.656 11.6508C35.9948 11.5661 36.2913 11.4072 36.5137 11.1743C36.736 10.9413 36.8949 10.6343 36.9796 10.2637C37.0537 9.89307 37.0431 9.45894 36.9266 8.97187C36.8102 8.4848 36.6302 8.09302 36.3972 7.79654C36.1537 7.50006 35.8784 7.29888 35.5607 7.18241C35.2431 7.06593 34.9148 7.06593 34.576 7.14005C34.2266 7.22476 33.9407 7.38359 33.7077 7.61654C33.4748 7.84948 33.3265 8.15655 33.2418 8.52715C33.1677 8.89775 33.1783 9.33188 33.2948 9.81895C33.4324 10.3166 33.6018 10.7084 33.8454 11.0049Z" fill="#2B688E"/>
<path d="M23.5214 17.4639C23.7332 17.3051 23.8814 17.1251 23.9661 16.9345C24.0508 16.7439 24.0826 16.5533 24.0614 16.3627C24.0402 16.1721 23.9661 16.0027 23.8602 15.8439C23.6908 15.6215 23.4685 15.4944 23.172 15.4627C22.8861 15.4309 22.579 15.5368 22.2614 15.7697L21.1602 16.5956L22.4202 18.2898L23.5214 17.4639Z" fill="#2B688E"/>
<path d="M17.7508 18.9251C17.8037 18.7451 17.8037 18.5757 17.7614 18.4063C17.719 18.2369 17.6237 18.0886 17.4755 17.951C17.2849 17.7816 17.0625 17.7074 16.819 17.718C16.5755 17.7286 16.3213 17.8769 16.0778 18.1522L15.2307 19.0945L16.6284 20.344L17.4649 19.4122C17.6025 19.2745 17.6978 19.1051 17.7508 18.9251Z" fill="#2B688E"/>
<path d="M19.5403 21.1592C19.8368 20.8309 19.985 20.5344 19.985 20.2697C19.985 20.0156 19.8897 19.7932 19.6991 19.6238C19.5509 19.4968 19.392 19.4121 19.2015 19.3803C19.0109 19.3485 18.8203 19.3591 18.6297 19.4332C18.4391 19.5073 18.2591 19.6344 18.0897 19.8144L17.1685 20.8415L18.6403 22.1545L19.5403 21.1592Z" fill="#2B688E"/>
<path d="M63.8532 15.8332C64.0967 16.0238 64.3191 16.1297 64.5308 16.1614C64.7426 16.1932 64.9438 16.172 65.1238 16.0767C65.3038 15.992 65.4732 15.8544 65.6109 15.6638C65.7485 15.4732 65.8438 15.2932 65.8862 15.092C65.9285 14.8908 65.9074 14.7002 65.8226 14.499C65.7379 14.2979 65.5685 14.1073 65.325 13.9167L64.4038 13.1967L62.9214 15.092L63.8532 15.8332Z" fill="#2B688E"/>
<path d="M46.3081 10.6977C46.5622 10.9095 46.8587 11.0366 47.2187 11.0895C47.5681 11.1319 47.8964 11.0895 48.1929 10.9519C48.4893 10.8142 48.7435 10.5813 48.9552 10.2636C49.1564 9.94594 49.2941 9.53299 49.3682 9.03533C49.4317 8.53767 49.4106 8.10354 49.2941 7.74353C49.1776 7.38352 48.9976 7.09763 48.7435 6.87527C48.4894 6.65291 48.1929 6.53644 47.8329 6.48349C47.4834 6.44114 47.1552 6.48349 46.8587 6.62115C46.5622 6.7588 46.3081 6.99174 46.0963 7.3094C45.8846 7.62706 45.7575 8.04001 45.6834 8.53767C45.6199 9.03533 45.641 9.46946 45.7575 9.82947C45.874 10.1895 46.0646 10.4754 46.3081 10.6977Z" fill="#2B688E"/>
<path d="M36.7784 74.2077C36.5454 73.9748 36.2595 73.8159 35.9101 73.7418C35.5607 73.6677 35.2324 73.6783 34.9254 73.7948C34.6183 73.9112 34.343 74.1124 34.11 74.4089C33.8771 74.7054 33.7077 75.1077 33.5912 75.5948C33.4853 76.0819 33.4641 76.516 33.5489 76.8866C33.6336 77.2572 33.7924 77.5643 34.0253 77.7972C34.2583 78.0302 34.5442 78.189 34.8936 78.2631C35.243 78.3372 35.5713 78.3267 35.8783 78.2102C36.1854 78.0937 36.4607 77.8925 36.6936 77.596C36.9266 77.2996 37.096 76.8972 37.2125 76.4101C37.3184 75.9231 37.3395 75.4889 37.2548 75.1183C37.1701 74.7477 37.0113 74.4513 36.7784 74.2077Z" fill="#2B688E"/>
<path d="M57.5424 14.3508C57.8601 14.5096 58.1777 14.5837 58.506 14.552C58.8342 14.5202 59.1519 14.3931 59.4589 14.1602C59.766 13.9272 60.0307 13.5884 60.2637 13.1437C60.4966 12.699 60.6237 12.286 60.6343 11.9048C60.6449 11.5236 60.5707 11.1954 60.4119 10.9095C60.2425 10.6236 60.0095 10.4013 59.6919 10.2318C59.3742 10.073 59.0566 9.99889 58.7283 10.0307C58.4001 10.0624 58.0824 10.1895 57.786 10.4224C57.4789 10.6554 57.2142 10.9942 56.9812 11.4389C56.7483 11.8837 56.6318 12.2966 56.6106 12.6778C56.5895 13.059 56.6742 13.3872 56.833 13.6731C56.9918 13.9696 57.2354 14.192 57.5424 14.3508Z" fill="#2B688E"/>
<path d="M70.6299 26.75C70.8099 26.8559 71.0005 26.9088 71.1911 26.9088C71.3817 26.9088 71.5617 26.8665 71.7311 26.7712C71.9746 26.6335 72.1229 26.4218 72.197 26.1465C72.2605 25.8606 72.197 25.5429 72.0064 25.2041L71.3287 24.0076L69.4863 25.0452L70.164 26.2417C70.2911 26.4747 70.4393 26.6441 70.6299 26.75Z" fill="#2B688E"/>
<path d="M69.2321 63.8629C69.2745 63.6828 69.2745 63.5134 69.2321 63.344C69.1898 63.1746 69.0839 63.0264 68.9357 62.8993C68.7451 62.7299 68.5227 62.6663 68.2792 62.6875C68.0356 62.7087 67.7921 62.8675 67.5486 63.1428L66.7227 64.1064L68.1521 65.3241L68.9568 64.3711C69.0945 64.2123 69.1898 64.0429 69.2321 63.8629Z" fill="#2B688E"/>
<path d="M70.6935 64.2758C70.5029 64.244 70.3123 64.2652 70.1217 64.3393C69.9311 64.4134 69.7511 64.5511 69.5923 64.7417L68.7029 65.7899L70.2065 67.0711L71.0747 66.0546C71.3606 65.7158 71.5088 65.4193 71.4983 65.1546C71.4877 64.9005 71.3924 64.6781 71.1912 64.5193C71.0429 64.3817 70.8841 64.3075 70.6935 64.2758Z" fill="#2B688E"/>
<path d="M66.2991 67.8123C65.9814 67.4205 65.6532 67.1558 65.3038 66.9864C64.9649 66.8275 64.6261 66.764 64.2979 66.8064C63.9696 66.8487 63.6731 66.9758 63.3978 67.2087C63.1225 67.4311 62.9319 67.7064 62.8366 68.0135C62.7308 68.3311 62.7308 68.67 62.8261 69.0405C62.9214 69.4111 63.1225 69.7817 63.4402 70.1735C63.7579 70.5653 64.0861 70.83 64.4355 70.9994C64.7744 71.1583 65.1132 71.2218 65.4414 71.1794C65.7697 71.1371 66.0662 71.01 66.3415 70.7771C66.6168 70.5547 66.7968 70.2794 66.9026 69.9723C67.0085 69.6547 67.0085 69.3159 66.9132 68.9453C66.8179 68.5747 66.6168 68.2041 66.2991 67.8123Z" fill="#2B688E"/>
<path d="M42.9728 0.0351562C19.5827 0.0351562 0.618652 18.9992 0.618652 42.3893C0.618652 65.7794 19.5827 84.7434 42.9728 84.7434C66.3629 84.7434 85.3269 65.7794 85.3269 42.3893C85.3269 18.9992 66.3629 0.0351562 42.9728 0.0351562ZM77.6926 29.5348L75.8608 31.6843L75.8714 31.7266L78.6138 32.3831L78.942 33.4102L75.416 32.5314L73.0866 35.3161L72.7477 34.2891L74.5478 32.1502L74.5372 32.1078L71.8159 31.4302L71.4771 30.4031L75.0137 31.3243L77.3432 28.5183L77.6926 29.5348ZM76.6337 26.7606L71.2759 29.7995L70.8206 28.9948L76.1784 25.9559L76.6337 26.7606ZM73.7007 21.5828L74.156 22.3981L71.996 23.6264L72.6736 24.8229C72.896 25.2253 73.023 25.5959 73.0548 25.9453C73.0866 26.2947 73.023 26.6124 72.8748 26.8983C72.7266 27.1736 72.483 27.4065 72.1654 27.5865C71.8477 27.7665 71.5195 27.8512 71.1912 27.8512C70.863 27.8406 70.5559 27.7348 70.2594 27.5336C69.963 27.3324 69.6982 27.0359 69.4759 26.6336L68.3429 24.6217L73.7007 21.5828ZM69.6771 42.3893C69.6771 57.1391 57.7226 69.0936 42.9728 69.0936C28.223 69.0936 16.2685 57.1391 16.2685 42.3893C16.2685 27.6395 28.223 15.685 42.9728 15.685C57.7226 15.685 69.6771 27.6395 69.6771 42.3893ZM69.6241 16.7015L67.6229 18.4804L69.6559 20.7781L71.6571 18.9992L72.2712 19.6981L67.6652 23.7852L67.0511 23.0864L69.0629 21.3075L67.0193 19.0098L65.0075 20.7887L64.3934 20.0898L68.9994 16.0027L69.6241 16.7015ZM65.897 13.3661C66.2781 13.6626 66.5323 13.9803 66.6699 14.3085C66.8076 14.6367 66.8499 14.9756 66.7864 15.3038C66.7229 15.6321 66.5746 15.9497 66.3417 16.2462C66.1087 16.5427 65.8334 16.765 65.5264 16.9027C65.2193 17.0403 64.8805 17.0827 64.5204 17.0298C64.1604 16.9768 63.8004 16.7968 63.4192 16.5003L62.4239 15.7168L61.0898 17.4215L60.3591 16.8497L64.1604 12.0002L65.897 13.3661ZM57.2567 9.68131C57.6908 9.37424 58.1462 9.20483 58.6332 9.17306C59.1203 9.14129 59.6074 9.24718 60.0733 9.49072C60.5392 9.73425 60.9098 10.0625 61.1639 10.486C61.418 10.9096 61.5451 11.3755 61.5345 11.9049C61.5345 12.4343 61.3757 12.9955 61.0686 13.5779C60.7615 14.1603 60.4015 14.605 59.9674 14.912C59.5332 15.2191 59.0779 15.3885 58.5909 15.4203C58.1038 15.4521 57.6273 15.3462 57.1508 15.1026C56.6743 14.8591 56.3143 14.5203 56.0602 14.1073C55.8061 13.6838 55.679 13.2179 55.6896 12.6885C55.7002 12.159 55.8484 11.5978 56.1555 11.0155C56.4626 10.4331 56.8226 9.98838 57.2567 9.68131ZM52.6083 6.63181L56.2614 7.80714L56.0179 8.56951L53.2437 7.68008L51.6024 12.7837L50.713 12.4979L52.6083 6.63181ZM44.7728 8.42127C44.8575 7.76479 45.0587 7.22477 45.3552 6.79064C45.6623 6.35651 46.0329 6.03885 46.4776 5.83767C46.9329 5.64708 47.42 5.58355 47.9494 5.64708C48.4788 5.7212 48.9341 5.91179 49.3153 6.21886C49.6965 6.52593 49.9718 6.92829 50.1518 7.42595C50.3318 7.92361 50.3636 8.50598 50.2789 9.15188C50.1942 9.80837 49.993 10.3484 49.6965 10.7825C49.4 11.2166 49.0188 11.5343 48.5741 11.7355C48.1294 11.9367 47.6423 11.9896 47.1129 11.9261C46.5835 11.852 46.1282 11.6614 45.747 11.3543C45.3658 11.0472 45.0905 10.6449 44.9105 10.1366C44.7305 9.62837 44.6881 9.06717 44.7728 8.42127ZM40.0609 5.49884L40.1774 8.10362L40.4951 8.09303L42.7716 5.38237L43.9258 5.32942L41.4904 8.22009L44.1799 11.4814L43.0469 11.5343L40.8445 8.86599L40.2092 8.89776L40.3362 11.6614L39.4044 11.7037L39.1291 5.54119L40.0609 5.49884ZM32.3737 8.3048C32.5007 7.78596 32.7337 7.36242 33.0831 7.013C33.4325 6.67417 33.8666 6.44122 34.3855 6.31416C34.9043 6.18709 35.3914 6.20827 35.8573 6.35651C36.3232 6.50475 36.7255 6.78005 37.075 7.18242C37.4138 7.58478 37.6679 8.10362 37.8162 8.74952C37.9644 9.39542 37.9856 9.9672 37.8585 10.486C37.7315 11.0049 37.4985 11.4284 37.1491 11.7778C36.7997 12.1167 36.3655 12.3496 35.8467 12.4767C35.3279 12.6037 34.8302 12.5826 34.3749 12.4343C33.909 12.2861 33.5066 12.0108 33.1572 11.5978C32.8184 11.1955 32.5643 10.6766 32.416 10.0307C32.2572 9.40601 32.2466 8.82364 32.3737 8.3048ZM26.4441 9.5966C26.7194 9.19424 27.09 8.87658 27.5771 8.65422C27.8735 8.51657 28.17 8.43186 28.4665 8.4001C28.763 8.36833 29.0489 8.37892 29.3348 8.45304C29.6206 8.51657 29.8748 8.64363 30.1183 8.81305C30.3618 8.98247 30.5736 9.20483 30.7642 9.49072L29.9171 9.88249C29.8006 9.71308 29.663 9.58601 29.5148 9.49072C29.3665 9.39542 29.1971 9.33189 29.0277 9.28953C28.8583 9.25777 28.6783 9.24718 28.4983 9.26836C28.3183 9.28953 28.1382 9.34248 27.9582 9.42719C27.6406 9.57542 27.3865 9.78719 27.2065 10.0731C27.0265 10.3484 26.9312 10.6872 26.9312 11.0684C26.9312 11.4496 27.037 11.8625 27.2382 12.3179C27.45 12.7732 27.7041 13.1226 27.99 13.3661C28.2759 13.6097 28.5936 13.7579 28.9218 13.8002C29.25 13.8426 29.5783 13.7897 29.8959 13.6414C30.076 13.5567 30.2242 13.4614 30.3618 13.3344C30.4995 13.2179 30.6054 13.0696 30.7007 12.9214C30.7854 12.7626 30.8383 12.6037 30.8701 12.4237C30.9019 12.2437 30.8913 12.0531 30.8383 11.8625L31.696 11.4708C31.7807 11.7673 31.8019 12.0637 31.7807 12.3496C31.7595 12.6355 31.6854 12.9108 31.5583 13.1755C31.4313 13.4402 31.2619 13.6732 31.0395 13.885C30.8171 14.0967 30.563 14.2767 30.2454 14.4144C29.7583 14.6367 29.2712 14.7215 28.7947 14.6685C28.3077 14.6156 27.8629 14.425 27.4394 14.0861C27.0265 13.7579 26.677 13.292 26.4017 12.699C26.1264 12.1061 25.9994 11.5343 26.0205 11.0049C26.0311 10.4754 26.1794 10.0096 26.4441 9.5966ZM23.2252 10.9731L26.91 15.9074L26.1688 16.4686L22.484 11.5343L23.2252 10.9731ZM19.2015 13.9803L20.6945 15.9709L21.7957 15.145C22.1663 14.8697 22.5157 14.7003 22.8652 14.6262C23.2146 14.552 23.5322 14.5732 23.8287 14.6897C24.1252 14.8062 24.3793 15.0073 24.6017 15.3038C24.824 15.6003 24.9511 15.9074 24.9829 16.2356C25.0146 16.5639 24.9511 16.8815 24.7923 17.1992C24.6334 17.5168 24.3687 17.8133 23.9981 18.0886L22.1557 19.4757L18.4709 14.5414L19.2015 13.9803ZM15.5379 17.5804C15.8344 17.2521 16.1203 17.0298 16.4273 16.9133C16.7238 16.7968 17.0097 16.765 17.285 16.818C17.5603 16.8709 17.8144 17.0086 18.0368 17.2098C18.2274 17.3792 18.3544 17.5592 18.4286 17.7498C18.4921 17.9404 18.5133 18.1204 18.4921 18.311C18.4709 18.5016 18.4074 18.6816 18.3121 18.851L18.3544 18.8933C18.5027 18.7451 18.6827 18.6392 18.905 18.5757C19.1274 18.5121 19.3604 18.5016 19.6145 18.5545C19.8686 18.6074 20.1121 18.7451 20.3451 18.9569C20.578 19.1686 20.7369 19.4122 20.8322 19.6875C20.9169 19.9628 20.9169 20.2698 20.8216 20.5875C20.7263 20.9157 20.5145 21.2546 20.1968 21.604L18.6192 23.3723L14.0343 19.2639L15.5379 17.5804ZM10.286 24.8864C10.4766 24.537 10.6989 24.2723 10.9742 24.0923C11.2495 23.9123 11.5354 23.8064 11.8319 23.7958C12.1284 23.7852 12.4143 23.8382 12.679 23.9864C12.9861 24.1452 13.1978 24.3676 13.3143 24.6535C13.4308 24.9394 13.452 25.2359 13.3778 25.5641L13.4202 25.5853C13.6637 25.257 13.9602 25.0559 14.299 24.9711C14.6379 24.897 14.9767 24.95 15.3155 25.1406C15.612 25.2994 15.8344 25.5218 15.9826 25.8182C16.1309 26.1147 16.1944 26.443 16.1732 26.803C16.152 27.163 16.0461 27.5336 15.845 27.9042C15.6544 28.2642 15.4108 28.5607 15.1355 28.783C14.8602 29.0054 14.5637 29.1324 14.2461 29.1748C13.939 29.2172 13.632 29.1748 13.3249 29.0266L13.7696 28.1901C13.939 28.2642 14.1084 28.2854 14.2779 28.2536C14.4473 28.2218 14.6061 28.1371 14.7543 28.0101C14.9026 27.883 15.0296 27.7242 15.1355 27.5336C15.252 27.3218 15.3155 27.11 15.3261 26.9089C15.3367 26.7077 15.3049 26.5171 15.2202 26.3582C15.1355 26.1888 15.0085 26.0618 14.8285 25.9665C14.6485 25.8712 14.4579 25.8288 14.2673 25.85C14.0767 25.8712 13.8967 25.9453 13.7273 26.0829C13.5473 26.2206 13.399 26.4112 13.2614 26.6653L13.0178 27.1206L12.3507 26.7606L12.5943 26.3053C12.7002 26.1041 12.7637 25.9029 12.7743 25.7123C12.7849 25.5218 12.7425 25.3417 12.6684 25.1935C12.5837 25.0347 12.4566 24.9076 12.2766 24.8229C12.1072 24.7382 11.9378 24.6959 11.779 24.6959C11.6095 24.7064 11.4613 24.7594 11.3131 24.8547C11.1648 24.95 11.0484 25.0982 10.9531 25.2782C10.8578 25.4582 10.8048 25.6382 10.7836 25.8288C10.7625 26.0194 10.7942 26.1888 10.8578 26.3477C10.9213 26.5065 11.0378 26.6335 11.2072 26.7288L10.7836 27.523C10.4978 27.3536 10.286 27.1312 10.1483 26.8453C10.0107 26.5594 9.95774 26.2524 9.97892 25.9135C10.0107 25.5535 10.1166 25.2147 10.286 24.8864ZM7.25766 32.6372L11.5672 34.0138L11.5884 33.9608L8.23181 29.5983L8.49652 28.783L14.3626 30.6572L14.0767 31.5466L9.76715 30.1701L9.74597 30.2231L13.1025 34.5749L12.8378 35.3903L6.97177 33.5161L7.25766 32.6372ZM15.3897 65.4511C15.3049 65.6099 15.2097 65.7688 15.1144 65.9276C15.0826 65.8958 15.0402 65.8852 15.0191 65.8535C13.7378 64.3287 15.9508 60.3157 14.9449 58.5792C13.9496 56.8532 9.36478 56.7791 8.67653 54.8838C7.99886 53.0202 11.4507 50.0236 11.1013 48.0224C10.7625 46.0741 6.4847 44.4329 6.4847 42.3893C6.4847 40.3563 10.7519 38.7151 11.1013 36.7774C11.2178 36.788 11.3448 36.788 11.4613 36.8091C11.5143 36.8197 11.5672 36.8409 11.6201 36.8409C11.6201 36.8515 11.6201 36.8515 11.6201 36.8621C11.4295 37.9739 10.2754 38.9162 9.1636 39.8163C8.10474 40.6845 7.00354 41.574 7.00354 42.3893C7.00354 43.2046 8.09416 44.1046 9.1636 44.9623C10.2754 45.8623 11.419 46.8047 11.6201 47.9165C11.8213 49.0707 11.0484 50.373 10.2966 51.6225C9.60832 52.7661 8.89888 53.9626 9.1636 54.6826C9.4389 55.4344 10.7625 55.9003 12.0437 56.345C13.4096 56.8215 14.8179 57.3085 15.3897 58.2933C15.972 59.2992 15.6861 60.771 15.4214 62.2004C15.1885 63.5028 14.9343 64.8264 15.3897 65.4511ZM18.4603 70.8513L21.5522 67.5582L21.5098 67.5159L16.1414 68.67L15.5167 68.0877L19.731 63.5875L20.398 64.2122L17.3062 67.5159L17.3485 67.5582L22.7275 66.3935L23.3522 66.9865L19.138 71.4866L18.4603 70.8513ZM27.3335 72.0054L26.5394 71.4972C26.6135 71.3066 26.6559 71.1266 26.6559 70.9466C26.6559 70.7666 26.6241 70.5866 26.5606 70.4277C26.497 70.2583 26.4017 70.1101 26.2853 69.9724C26.1688 69.8348 26.0205 69.7077 25.8617 69.6018C25.5652 69.4112 25.2476 69.3159 24.9193 69.3159C24.5911 69.3159 24.2628 69.4218 23.9346 69.623C23.6169 69.8242 23.3205 70.1418 23.0558 70.5548C22.791 70.9783 22.6322 71.3807 22.5793 71.7513C22.5263 72.1219 22.5793 72.4713 22.7169 72.7678C22.8546 73.0643 23.0769 73.3078 23.3734 73.4984C23.5322 73.6043 23.7122 73.6784 23.8817 73.7313C24.0617 73.7843 24.2311 73.7949 24.4111 73.7843C24.5911 73.7737 24.7605 73.7313 24.9193 73.6572C25.0888 73.5831 25.237 73.4772 25.3746 73.329L26.1688 73.8372C25.9676 74.0702 25.7347 74.2502 25.4805 74.3878C25.2264 74.5255 24.9511 74.6102 24.6652 74.642C24.3793 74.6737 24.0828 74.6631 23.7864 74.589C23.4899 74.5149 23.204 74.3984 22.9181 74.2078C22.4628 73.9219 22.1346 73.5619 21.9228 73.1172C21.711 72.6831 21.6263 72.196 21.6792 71.6666C21.7322 71.1372 21.9334 70.5971 22.2828 70.0465C22.6322 69.4959 23.0452 69.083 23.5005 68.8077C23.9558 68.543 24.4323 68.4053 24.9193 68.4159C25.4064 68.4265 25.8723 68.5747 26.3276 68.8606C26.6029 69.0406 26.8359 69.2418 27.0265 69.4748C27.217 69.7077 27.3547 69.9618 27.45 70.2265C27.5453 70.4913 27.5876 70.7877 27.5771 71.0842C27.5453 71.3913 27.4712 71.6983 27.3335 72.0054ZM29.0595 77.2573L28.2018 76.9079L30.256 71.9525L28.4877 71.2219L28.7947 70.4807L33.1996 72.3019L32.8925 73.0431L31.1136 72.3125L29.0595 77.2573ZM38.1021 76.6114C37.9538 77.2573 37.7209 77.7762 37.382 78.1891C37.0432 78.6021 36.6408 78.8774 36.1749 79.0362C35.7091 79.195 35.222 79.2162 34.7031 79.0997C34.1843 78.9833 33.7502 78.7503 33.3902 78.4115C33.0407 78.0726 32.7972 77.6491 32.6596 77.1303C32.5325 76.6114 32.5325 76.0396 32.6807 75.4043C32.829 74.7584 33.0619 74.2396 33.4007 73.8266C33.7396 73.4243 34.1419 73.1384 34.6078 72.9796C35.0737 72.8207 35.5608 72.7996 36.0797 72.916C36.5985 73.0325 37.0326 73.2654 37.382 73.6043C37.7315 73.9431 37.975 74.3667 38.1126 74.8855C38.2609 75.3937 38.2503 75.9655 38.1021 76.6114ZM44.0528 79.9786L43.1316 79.9468L43.2163 77.5326C43.1422 77.5538 43.0681 77.575 42.9834 77.5856C42.8563 77.6067 42.7187 77.6279 42.581 77.6491C42.4434 77.6597 42.2951 77.6809 42.1363 77.6809C41.988 77.6915 41.8292 77.6915 41.6598 77.6809C41.2151 77.6703 40.8233 77.5856 40.5057 77.4479C40.188 77.3103 39.9445 77.0985 39.775 76.8126C39.6056 76.5267 39.5315 76.1561 39.5527 75.7008L39.6162 73.6678L40.5374 73.6996L40.4739 75.7326C40.4633 76.0185 40.5057 76.2408 40.6009 76.4102C40.6962 76.5797 40.8339 76.6961 41.0139 76.7703C41.1939 76.8444 41.4269 76.8867 41.6916 76.8973C41.8292 76.8973 41.9775 76.8973 42.1257 76.8973C42.2739 76.8867 42.4222 76.8761 42.5704 76.8655C42.7187 76.8444 42.8563 76.8338 42.994 76.802C43.0787 76.7808 43.1634 76.7702 43.2375 76.7491L43.3328 73.8055L44.254 73.8372L44.0528 79.9786ZM50.1518 79.2691L49.7494 76.6114L46.7105 77.0667L47.1129 79.7245L46.1917 79.8621L45.2705 73.7737L46.1917 73.636L46.5941 76.2832L49.633 75.8279L49.2306 73.1807L50.1518 73.0431L51.073 79.1315L50.1518 79.2691ZM56.8861 77.2891L55.3931 73.0219L55.3402 73.0431L53.8896 78.3373L53.0848 78.6232L51.0412 72.8101L51.9095 72.5031L53.4131 76.7703L53.466 76.7491L54.9272 71.4442L55.7426 71.1583L57.7861 76.9714L56.8861 77.2891ZM62.7733 74.3031L59.5968 72.9372L59.0462 73.2549L60.4121 75.6585L59.6074 76.1138L56.5579 70.756L57.3626 70.3007L58.6438 72.5666L58.9191 72.4078L59.7133 68.9559L60.7192 68.3841L59.8721 72.0689L63.7475 73.7419L62.7733 74.3031ZM67.7394 70.2371C67.5805 70.703 67.2946 71.0948 66.8817 71.4336C66.4687 71.7725 66.024 71.9736 65.5369 72.0478C65.0499 72.1219 64.5628 72.0478 64.0757 71.836C63.5887 71.6242 63.1334 71.2642 62.7204 70.756C62.2969 70.2477 62.0321 69.7395 61.9157 69.2206C61.7992 68.7018 61.8204 68.2147 61.9898 67.7488C62.1486 67.2829 62.4345 66.8912 62.8475 66.5523C63.2604 66.2135 63.7051 66.0123 64.1922 65.9382C64.6793 65.8641 65.1663 65.9382 65.6428 66.15C66.1299 66.3617 66.5852 66.7217 66.9982 67.23C67.4111 67.7382 67.6864 68.2465 67.7923 68.7653C67.9194 69.2842 67.8982 69.7712 67.7394 70.2371ZM72.3454 65.4511C72.2607 65.7794 72.0595 66.1288 71.7524 66.4888L70.2171 68.2888L65.5264 64.297L66.9876 62.5816C67.2735 62.2534 67.5594 62.0204 67.8558 61.8934C68.1523 61.7663 68.4382 61.7345 68.7135 61.7769C68.9888 61.8298 69.2429 61.9463 69.4759 62.1475C69.6771 62.3169 69.8041 62.4863 69.8783 62.6769C69.9524 62.8675 69.9735 63.0475 69.9524 63.2381C69.9312 63.4287 69.8783 63.6087 69.7935 63.7781L69.8359 63.8205C69.9735 63.6722 70.1535 63.5664 70.3759 63.4922C70.5983 63.4181 70.8312 63.4075 71.0853 63.4605C71.3395 63.5028 71.583 63.6299 71.8265 63.8417C72.0701 64.0428 72.2289 64.2864 72.3242 64.5617C72.4301 64.8264 72.4301 65.1229 72.3454 65.4511ZM77.269 54.8732C76.5808 56.7685 71.9959 56.8426 71.0006 58.5686C70.6406 59.1933 70.6936 60.0933 70.8524 61.078C70.8206 61.0569 70.7889 61.0463 70.7571 61.0357C70.6088 60.9616 70.4712 60.8769 70.3335 60.7816C70.3124 60.771 70.2912 60.7498 70.27 60.7392C70.1535 59.818 70.1641 58.9603 70.5453 58.3039C71.1171 57.3085 72.5254 56.8215 73.8913 56.345C75.1725 55.9003 76.4961 55.445 76.7714 54.6826C77.0361 53.952 76.3267 52.7661 75.6384 51.6225C74.8866 50.373 74.1137 49.0707 74.3148 47.9165C74.5054 46.8047 75.6596 45.8623 76.7714 44.9623C77.8302 44.094 78.9314 43.2046 78.9314 42.3893C78.9314 41.574 77.8408 40.6739 76.7714 39.8163C75.6596 38.9162 74.516 37.9739 74.3148 36.8621C74.2725 36.6185 74.2831 36.375 74.3148 36.1209H74.8443C74.8125 36.3432 74.7913 36.5656 74.8337 36.7668C75.1725 38.7045 79.4503 40.3457 79.4503 42.3893C79.4503 44.4329 75.1725 46.0741 74.8337 48.0118C74.4948 50.013 77.9467 53.0096 77.269 54.8732Z" fill="#2B688E"/>
</g>
<g clip-path="url(#clip1_1_1528)">
<path d="M155.878 59.1827C153.432 57.9438 150.542 57.9438 148.085 59.1827L145.353 60.5698C145.343 60.5698 145.332 60.5804 145.332 60.5804C143.553 61.4698 141.446 61.4698 139.678 60.5804C139.667 60.5804 139.657 60.5698 139.646 60.5698L136.914 59.1827C134.458 57.9438 131.567 57.9438 129.121 59.1827L126.379 60.5698C126.252 60.6333 126.124 60.6968 125.987 60.7604C126.548 61.2686 127.13 61.7451 127.745 62.2004L129.64 61.2369C131.768 60.1674 134.267 60.1674 136.385 61.2369L139.127 62.624C139.138 62.624 139.159 62.6345 139.18 62.6451C139.275 62.6769 139.36 62.7087 139.455 62.7404C140.334 63.1216 141.372 63.3969 142.547 63.3969C143.574 63.3969 144.697 63.1851 145.883 62.624L148.615 61.2369C150.732 60.1674 153.242 60.1674 155.359 61.2369L157.255 62.2004C157.858 61.7557 158.451 61.2686 159.012 60.7604C158.875 60.6968 158.748 60.6333 158.621 60.5698L155.878 59.1827Z" fill="#2B688E"/>
<path d="M145.883 44.4752L148.614 43.0987C150.732 42.0292 153.242 42.0292 155.359 43.0987L158.091 44.4752C158.112 44.4858 158.133 44.4964 158.155 44.4964C159.319 44.9305 160.41 45.0999 161.395 45.0999C165.101 45.0999 167.398 42.6751 167.43 42.6434C167.642 42.421 167.642 42.0716 167.42 41.8386C167.24 41.648 166.943 41.6269 166.71 41.7433L165.376 42.421C163.258 43.4905 160.749 43.4905 158.631 42.421L155.899 41.0445C153.453 39.8056 150.552 39.8056 148.106 41.0445L145.374 42.421C145.364 42.421 145.353 42.4316 145.343 42.4316C145.237 42.4845 145.131 42.5163 145.025 42.5692L146.19 35.2526L148.625 34.0137C150.743 32.9443 153.252 32.9443 155.37 34.0137L158.102 35.4008C158.123 35.4008 158.144 35.4114 158.165 35.422C159.33 35.8561 160.41 36.0255 161.395 36.0255C163.375 36.0255 164.942 35.3373 165.99 34.6808C165.842 34.2149 165.673 33.749 165.482 33.2937L165.376 33.3466C163.258 34.4055 160.738 34.4055 158.631 33.3466L155.889 31.9595C153.443 30.7313 150.552 30.7313 148.096 31.9595L146.581 32.7219L147.714 28.063C148.53 24.7276 152.225 22.8005 155.296 24.3146C155.317 24.3252 155.338 24.3358 155.359 24.3464L158.091 25.7335C158.112 25.7441 158.133 25.7441 158.155 25.7547C159.288 26.1782 160.346 26.3582 161.31 26.3688C160.505 25.4158 159.626 24.5158 158.674 23.7005C158.652 23.7005 158.642 23.6899 158.621 23.6793L155.878 22.3028C153.432 21.0639 150.542 21.0639 148.085 22.3028L145.353 23.6793C145.343 23.6793 145.332 23.6899 145.332 23.6899C143.553 24.5793 141.446 24.5793 139.678 23.6899C139.667 23.6899 139.656 23.6793 139.646 23.6793L136.914 22.3028C134.458 21.0639 131.567 21.0639 129.121 22.3028L126.378 23.6793C125.373 24.537 124.43 25.4794 123.573 26.5064C124.6 26.5064 125.722 26.2947 126.908 25.7335L129.64 24.3464C129.661 24.3358 129.682 24.3252 129.714 24.3146C132.795 22.8111 136.48 24.7276 137.295 28.063L138.428 32.7219L136.914 31.9595C134.458 30.7313 131.567 30.7313 129.121 31.9595L126.378 33.3466C124.271 34.4055 121.751 34.4055 119.644 33.3466L119.549 33.2937C119.348 33.7596 119.178 34.2467 119.019 34.7231C120.078 35.422 121.667 36.1738 123.573 36.1738C124.6 36.1738 125.722 35.962 126.908 35.4008L129.64 34.0137C131.768 32.9443 134.267 32.9443 136.385 34.0137L138.82 35.2526L139.985 42.5692C139.879 42.5269 139.773 42.4845 139.678 42.4316C139.667 42.4316 139.656 42.421 139.646 42.421L136.914 41.0445C134.468 39.8056 131.567 39.8056 129.121 41.0445L126.389 42.421C124.271 43.4905 121.762 43.4905 119.644 42.421L118.299 41.7433C118.066 41.6269 117.77 41.6586 117.59 41.8386C117.368 42.061 117.368 42.421 117.579 42.6434C117.611 42.6751 120.036 45.2481 123.573 45.2481C124.6 45.2481 125.722 45.0258 126.908 44.4752L129.64 43.0987C131.757 42.0292 134.267 42.0292 136.385 43.0987L139.116 44.4752C139.138 44.4858 139.159 44.4964 139.169 44.4964C139.265 44.5281 139.349 44.5599 139.445 44.5917C139.731 44.7081 140.038 44.814 140.355 44.9093L140.705 47.0906H135.061L136.766 50.0342C134.341 48.8694 131.525 48.8906 129.131 50.0977L126.389 51.4848C124.282 52.5436 121.762 52.5436 119.655 51.4848L119.517 51.4213C119.612 51.6754 119.718 51.9189 119.824 52.1625C120.047 52.6813 120.29 53.179 120.544 53.666V53.6766C121.412 54.0366 122.44 54.3119 123.583 54.3119C124.61 54.3119 125.733 54.1002 126.918 53.539L129.65 52.1519C131.779 51.0824 134.278 51.0824 136.395 52.1519L138.661 53.2954L142.505 59.9662L146.359 53.306L148.625 52.1519C150.743 51.0824 153.252 51.0824 155.37 52.1519L158.102 53.539C158.123 53.539 158.144 53.5496 158.165 53.5601C159.33 53.9943 160.41 54.1637 161.395 54.1637C162.612 54.1637 163.671 53.9096 164.55 53.5496C164.91 52.8613 165.228 52.1519 165.503 51.4213L165.376 51.4848C163.258 52.5436 160.738 52.5436 158.631 51.4848L155.889 50.0977C153.496 48.88 150.679 48.8694 148.254 50.0342L149.959 47.0906H144.305L144.644 44.9305C145.046 44.814 145.459 44.6764 145.883 44.4752Z" fill="#2B688E"/>
<path d="M126.728 70.3959C126.421 70.2159 126.103 70.1418 125.764 70.1629C125.436 70.1841 125.119 70.3006 124.801 70.5229C124.483 70.7453 124.208 71.0735 123.964 71.5077C123.721 71.9418 123.583 72.3548 123.551 72.736C123.52 73.1171 123.583 73.4454 123.742 73.7419C123.901 74.0383 124.134 74.2713 124.441 74.4407C124.748 74.6101 125.066 74.6948 125.394 74.6736C125.722 74.6525 126.05 74.536 126.357 74.3242C126.664 74.1125 126.95 73.7736 127.194 73.3395C127.437 72.9054 127.575 72.4924 127.607 72.1218C127.639 71.7406 127.575 71.4124 127.416 71.1159C127.268 70.7982 127.035 70.5653 126.728 70.3959Z" fill="#2B688E"/>
<path d="M111.269 26.4005C111.47 26.517 111.661 26.5699 111.851 26.5805C112.042 26.5805 112.211 26.5276 112.381 26.4005C112.55 26.2735 112.709 26.0829 112.857 25.8181L113.44 24.7911L111.491 23.7004L110.919 24.7169C110.771 24.9817 110.686 25.2252 110.676 25.437C110.665 25.6487 110.708 25.8287 110.814 25.9982C110.919 26.1676 111.068 26.2946 111.269 26.4005Z" fill="#2B688E"/>
<path d="M165.884 18.7451L167.017 16.2039L166.985 16.1721L164.518 17.4745L165.884 18.7451Z" fill="#2B688E"/>
<path d="M174.451 30.4666C174.429 30.6784 174.472 30.9219 174.567 31.2078L174.959 32.3196L177.066 31.589L176.685 30.4878C176.59 30.2019 176.462 29.9795 176.314 29.8313C176.166 29.6831 175.997 29.5878 175.806 29.5666C175.615 29.5348 175.414 29.5666 175.192 29.6407C174.969 29.7148 174.8 29.8207 174.673 29.9584C174.546 30.096 174.472 30.2548 174.451 30.4666Z" fill="#2B688E"/>
<path d="M171.962 26.9618L173.815 24.8865L173.794 24.8441L171.052 25.3418L171.962 26.9618Z" fill="#2B688E"/>
<path d="M142.505 0.0351562C119.115 0.0351562 100.151 18.9992 100.151 42.3893C100.151 65.7794 119.115 84.7434 142.505 84.7434C165.895 84.7434 184.859 65.7794 184.859 42.3893C184.859 18.9992 165.895 0.0351562 142.505 0.0351562ZM175.912 28.6348C176.24 28.6877 176.526 28.836 176.791 29.0795C177.045 29.323 177.257 29.6725 177.415 30.1278L178.135 32.2031L172.312 34.2255L172.005 33.3467L174.207 32.5843L173.794 31.3878C173.784 31.3666 173.784 31.356 173.784 31.3349L171.168 30.9113L170.819 29.9054L173.635 30.3819C173.635 30.3184 173.625 30.2442 173.635 30.1807C173.678 29.8313 173.815 29.5348 174.038 29.2913C174.26 29.0477 174.546 28.8677 174.895 28.7407C175.245 28.6242 175.584 28.5818 175.912 28.6348ZM175.044 24.7806L170.755 29.7254L170.268 28.8677L171.412 27.5759L170.236 25.4794L168.542 25.7865L168.055 24.9288L174.514 23.8488L175.044 24.7806ZM169.209 42.3893C169.209 57.1391 157.255 69.0936 142.505 69.0936C127.755 69.0936 115.801 57.1391 115.801 42.3893C115.801 27.6395 127.755 15.685 142.505 15.685C157.255 15.685 169.209 27.6395 169.209 42.3893ZM170.13 17.6757L173.074 21.424L172.449 21.9217L171.263 20.4075L167.049 23.7217L166.477 22.9911L170.692 19.6769L169.506 18.1627L170.13 17.6757ZM168.15 15.738L165.556 21.7522L164.836 21.0746L165.535 19.4969L163.777 17.8557L162.253 18.6604L161.533 17.9827L167.356 14.9968L168.15 15.738ZM159.245 11.619L160.336 9.90367L161.109 10.3907L160.018 12.1061C159.87 12.3496 159.785 12.5614 159.785 12.752C159.785 12.9426 159.838 13.112 159.966 13.2708C160.093 13.4297 160.262 13.5779 160.484 13.7261C160.601 13.8002 160.728 13.8744 160.855 13.9485C160.982 14.0226 161.12 14.0861 161.257 14.1391C161.395 14.2026 161.522 14.2556 161.66 14.3085C161.744 14.3403 161.818 14.3614 161.903 14.3826L163.481 11.8943L164.254 12.392L160.961 17.5909L160.188 17.0933L161.48 15.0497C161.406 15.0285 161.331 15.0073 161.247 14.9756C161.12 14.9332 160.993 14.8803 160.866 14.8273C160.738 14.7744 160.601 14.7003 160.463 14.6367C160.326 14.5626 160.188 14.4885 160.05 14.4038C159.669 14.1603 159.383 13.9061 159.171 13.6202C158.97 13.3344 158.864 13.0273 158.864 12.699C158.885 12.3602 159.002 12.0002 159.245 11.619ZM154.481 7.35183L153.506 9.85073L156.365 10.9625L157.34 8.46363L158.208 8.80246L155.974 14.5414L155.105 14.2026L156.08 11.7037L153.221 10.5919L152.246 13.0908L151.378 12.752L153.612 7.013L154.481 7.35183ZM147.799 5.73179L151.59 6.47298L151.431 7.25654L148.551 6.69534L148.191 8.53775L150.87 9.06717L150.722 9.85073L148.043 9.3213L147.683 11.1743L150.595 11.7461L150.446 12.5296L146.624 11.7778L147.799 5.73179ZM140.811 5.37178L145.565 5.45648L145.449 11.619L144.517 11.5978L144.623 6.22945L141.721 6.17651L141.626 11.5449L140.694 11.5237L140.811 5.37178ZM135.061 6.12356L137.221 9.38483L138.068 5.63649L139.032 5.47766L137.74 10.846C137.687 11.0578 137.613 11.2696 137.528 11.4602C137.444 11.6508 137.306 11.8096 137.137 11.9473C136.957 12.0849 136.713 12.1802 136.395 12.2331L135.982 12.2967L135.855 11.4919L136.215 11.4284C136.364 11.4072 136.491 11.3543 136.586 11.2908C136.681 11.2272 136.745 11.1425 136.798 11.0366C136.851 10.9413 136.882 10.8355 136.914 10.719L136.967 10.486L134.087 6.28239L135.061 6.12356ZM132.742 6.63181L133.007 7.3836L131.175 8.00832L132.922 13.0802L132.044 13.3767L130.296 8.3048L128.486 8.92952L128.221 8.17774L132.742 6.63181ZM123.403 11.0366C123.647 10.6131 123.996 10.2637 124.452 10.0096C124.737 9.85073 125.023 9.74484 125.32 9.68131C125.616 9.61778 125.902 9.61778 126.188 9.66013C126.474 9.70249 126.739 9.80837 127.003 9.95661C127.258 10.1049 127.49 10.3166 127.702 10.5813L126.887 11.0366C126.76 10.8778 126.612 10.7613 126.453 10.6766C126.294 10.5919 126.125 10.539 125.945 10.5178C125.765 10.4966 125.595 10.5072 125.415 10.539C125.235 10.5813 125.066 10.6449 124.886 10.7402C124.579 10.9096 124.346 11.1531 124.187 11.439C124.028 11.7249 123.964 12.0637 123.996 12.4449C124.028 12.8261 124.166 13.2285 124.409 13.6626C124.653 14.0967 124.928 14.425 125.246 14.6473C125.553 14.8697 125.881 14.9862 126.209 15.0073C126.538 15.0285 126.855 14.9438 127.162 14.7744C127.332 14.6791 127.48 14.5626 127.607 14.4356C127.734 14.3085 127.829 14.1603 127.903 13.9908C127.978 13.832 128.02 13.6626 128.03 13.4826C128.041 13.3026 128.02 13.112 127.956 12.932L128.772 12.4767C128.878 12.7626 128.931 13.0591 128.931 13.3449C128.931 13.6308 128.878 13.9167 128.772 14.1814C128.666 14.4461 128.518 14.7003 128.316 14.9332C128.115 15.1662 127.872 15.3568 127.575 15.5262C127.109 15.7909 126.633 15.9074 126.146 15.8968C125.659 15.8862 125.193 15.7274 124.748 15.4309C124.303 15.1344 123.922 14.7003 123.604 14.1285C123.287 13.5567 123.107 13.0061 123.086 12.4767C123.054 11.9367 123.16 11.4602 123.403 11.0366ZM117.294 15.2826L120.237 18.7239L120.28 18.6816L119.718 13.2073L120.375 12.6461L124.377 17.3262L123.668 17.9298L120.735 14.4991L120.693 14.5414L121.254 20.0051L120.597 20.5663L116.595 15.8862L117.294 15.2826ZM115.261 17.2627L115.885 17.7709L114.678 19.2639L118.84 22.6417L118.257 23.3617L114.096 19.984L112.889 21.4769L112.264 20.9687L115.261 17.2627ZM110.178 24.41L111.258 22.4934L116.627 25.5112L116.171 26.3265L114.138 25.1829L113.524 26.2841C113.514 26.3053 113.503 26.3159 113.492 26.3265L114.911 28.5607L114.392 29.4819L112.878 27.0571C112.825 27.0994 112.783 27.1524 112.73 27.1947C112.434 27.3959 112.127 27.4912 111.798 27.4912C111.47 27.4912 111.142 27.3959 110.814 27.2053C110.485 27.0147 110.231 26.7924 110.051 26.5065C109.871 26.2312 109.797 25.9135 109.808 25.5535C109.818 25.2147 109.945 24.8335 110.178 24.41ZM108.283 28.1477L114.107 30.1489L113.81 31.0278L108.728 29.2807L107.785 32.0231L112.857 33.7596L112.561 34.6385L106.737 32.6372L108.283 28.1477ZM121.709 67.177C121.106 66.6688 120.068 66.5947 118.946 66.5947C118.469 66.5947 117.971 66.6053 117.495 66.6053C116.256 66.6053 115.112 66.51 114.551 65.8429C113.27 64.3181 115.483 60.3051 114.477 58.5686C113.482 56.8426 108.897 56.7685 108.209 54.8732C107.531 53.0096 110.983 50.013 110.634 48.0118C110.295 46.0741 106.017 44.4329 106.017 42.3893C106.017 40.3457 110.295 38.7045 110.634 36.7668C110.644 36.7244 110.634 36.6927 110.644 36.6503C110.814 36.7244 110.983 36.7985 111.152 36.8727C110.951 37.9845 109.808 38.9162 108.696 39.8163C107.637 40.6845 106.536 41.574 106.536 42.3893C106.536 43.2046 107.626 44.1046 108.696 44.9623C109.808 45.8623 110.951 46.8047 111.152 47.9165C111.354 49.0707 110.581 50.373 109.829 51.6225C109.141 52.7661 108.431 53.9626 108.696 54.6826C108.971 55.4344 110.295 55.9003 111.576 56.345C112.942 56.8215 114.35 57.3085 114.922 58.2933C115.504 59.2992 115.218 60.771 114.954 62.2004C114.7 63.524 114.445 64.8899 114.954 65.4935C115.377 66.0017 116.425 66.0652 117.484 66.0652C117.717 66.0652 117.961 66.0652 118.204 66.0547C118.448 66.0547 118.691 66.0441 118.935 66.0441C120.29 66.0441 121.339 66.1605 122.037 66.7535C122.397 67.0606 122.652 67.4841 122.842 67.9818C122.694 68.0982 122.546 68.2147 122.408 68.3524C122.249 67.8759 122.027 67.4523 121.709 67.177ZM127.999 73.7737C127.67 74.3455 127.289 74.7796 126.855 75.0761C126.41 75.3726 125.945 75.5208 125.457 75.542C124.97 75.5526 124.494 75.4361 124.028 75.1714C123.562 74.9067 123.213 74.5678 122.969 74.1337C122.726 73.7102 122.62 73.2337 122.641 72.6937C122.662 72.1537 122.842 71.6136 123.16 71.0419C123.488 70.4701 123.869 70.0359 124.303 69.7395C124.748 69.443 125.214 69.2947 125.701 69.2736C126.188 69.263 126.665 69.3795 127.13 69.6442C127.596 69.9089 127.946 70.2477 128.179 70.6713C128.422 71.0948 128.528 71.5713 128.507 72.1007C128.486 72.6301 128.327 73.2019 127.999 73.7737ZM132.721 78.708L131.853 78.4115L132.626 76.1244C132.552 76.1244 132.467 76.1244 132.382 76.1138C132.255 76.1032 132.118 76.082 131.98 76.0608C131.842 76.0396 131.694 76.0079 131.546 75.9655C131.398 75.9232 131.249 75.8808 131.091 75.8279C130.667 75.6796 130.318 75.4996 130.053 75.2773C129.788 75.0549 129.608 74.7796 129.534 74.4514C129.46 74.1337 129.492 73.7525 129.64 73.3184L130.286 71.3913L131.154 71.6878L130.508 73.6149C130.413 73.8796 130.392 74.1125 130.434 74.2925C130.476 74.4831 130.572 74.6314 130.731 74.7584C130.889 74.8855 131.091 74.9914 131.345 75.0761C131.482 75.1184 131.62 75.1608 131.758 75.2031C131.906 75.2455 132.044 75.2667 132.192 75.2984C132.34 75.3302 132.478 75.3514 132.615 75.362C132.7 75.3726 132.785 75.3726 132.869 75.3832L133.812 72.5878L134.68 72.8843L132.721 78.708ZM139.72 79.9045L138.799 79.7668L139.424 75.2879L139.371 75.2773L135.644 79.3221L134.797 79.2056L135.654 73.1066L136.565 73.2337L135.94 77.7126L135.993 77.7232L139.72 73.6784L140.567 73.7949L139.72 79.9045ZM146.56 78.6232C146.433 78.888 146.253 79.1103 146.042 79.3009C145.819 79.4915 145.576 79.6503 145.29 79.7562C145.004 79.8727 144.697 79.9362 144.358 79.9468C143.829 79.968 143.342 79.8621 142.918 79.6292C142.494 79.3962 142.145 79.0468 141.88 78.5809C141.616 78.115 141.478 77.5644 141.446 76.9079C141.414 76.2514 141.51 75.6796 141.732 75.2031C141.954 74.7161 142.261 74.3455 142.664 74.0702C143.066 73.7949 143.532 73.6466 144.072 73.6255C144.4 73.6149 144.707 73.6466 144.993 73.7207C145.279 73.8055 145.544 73.9219 145.777 74.0914C146.01 74.2608 146.211 74.4725 146.37 74.7161C146.529 74.9702 146.645 75.2561 146.709 75.5843L145.766 75.6267C145.724 75.4255 145.65 75.2561 145.544 75.1079C145.438 74.9596 145.311 74.8326 145.163 74.7373C145.014 74.642 144.856 74.5678 144.676 74.5149C144.496 74.4725 144.316 74.4514 144.114 74.462C143.765 74.4831 143.447 74.5784 143.172 74.769C142.897 74.9596 142.696 75.2349 142.547 75.5843C142.399 75.9338 142.336 76.3573 142.367 76.855C142.389 77.3526 142.494 77.7762 142.664 78.115C142.833 78.4538 143.077 78.6974 143.363 78.8668C143.649 79.0256 143.966 79.0997 144.316 79.0891C144.506 79.0786 144.697 79.0468 144.866 78.9833C145.036 78.9197 145.194 78.835 145.332 78.7291C145.47 78.6232 145.586 78.4856 145.682 78.3268C145.777 78.1679 145.83 77.9985 145.862 77.7973L146.793 77.755C146.783 78.0832 146.698 78.3691 146.56 78.6232ZM151.145 78.9197L150.245 79.1209L149.08 73.8902L147.206 74.3031L147.037 73.5196L151.696 72.4819L151.865 73.2654L149.991 73.6784L151.145 78.9197ZM157.996 76.6114L155.031 74.8431L154.438 75.0867L155.476 77.6491L154.618 77.9985L152.299 72.2913L153.157 71.9419L154.142 74.3561L154.438 74.2396L155.677 70.9254L156.747 70.4913L155.423 74.0384L159.044 76.2091L157.996 76.6114ZM163.894 73.276L162.549 72.196L160.506 73.4772L160.897 75.1608L160.061 75.6902L158.674 69.2948L159.584 68.723L164.73 72.7678L163.894 73.276ZM176.801 54.8732C176.113 56.7685 171.528 56.8426 170.533 58.5686C169.527 60.3051 171.74 64.3181 170.459 65.8429C169.898 66.51 168.754 66.6053 167.515 66.6053C167.039 66.6053 166.541 66.5947 166.064 66.5947C164.953 66.5947 163.915 66.6688 163.301 67.177C163.174 67.2829 163.057 67.4312 162.962 67.5794C162.824 67.4629 162.708 67.3359 162.581 67.2088C162.697 67.05 162.814 66.9017 162.962 66.7747C163.661 66.1817 164.709 66.0652 166.064 66.0652C166.308 66.0652 166.552 66.0652 166.795 66.0758C167.039 66.0758 167.282 66.0864 167.515 66.0864C168.585 66.0864 169.622 66.0123 170.046 65.5146C170.554 64.9111 170.289 63.5452 170.046 62.2216C169.77 60.7922 169.495 59.3204 170.078 58.3144C170.649 57.3191 172.058 56.832 173.424 56.3556C174.705 55.9108 176.028 55.4555 176.304 54.6932C176.568 53.9626 175.859 52.7766 175.171 51.6331C174.419 50.3836 173.646 49.0812 173.847 47.9271C174.038 46.8153 175.192 45.8729 176.304 44.9729C177.362 44.1046 178.464 43.2152 178.464 42.3999C178.464 41.5846 177.373 40.6845 176.304 39.8269C175.192 38.9268 174.048 37.9845 173.847 36.8727C173.815 36.6927 173.815 36.5126 173.826 36.3326C174.006 36.2691 174.196 36.2056 174.376 36.1421C174.345 36.3644 174.334 36.5762 174.366 36.7774C174.705 38.7151 178.982 40.3563 178.982 42.3999C178.982 44.4435 174.705 46.0847 174.366 48.0224C174.027 50.013 177.479 53.0096 176.801 54.8732Z" fill="#2B688E"/>
<path d="M161.914 71.6772L159.743 69.9301L159.701 69.9618L160.325 72.6725L161.914 71.6772Z" fill="#2B688E"/>
</g>
<g clip-path="url(#clip2_1_1528)">
<path d="M242.037 17.3368L227.616 41.934C221.093 53.0731 229.119 67.0923 242.037 67.0923C254.955 67.0923 262.981 53.0731 256.459 41.934L242.037 17.3368ZM242.037 54.5025C233.905 54.5025 228.854 45.6823 232.963 38.6621L242.037 23.1817L251.112 38.6621C255.22 45.6717 250.169 54.5025 242.037 54.5025Z" fill="#2B688E"/>
<path d="M243.551 35.1678C242.8 34.6701 241.9 34.416 240.862 34.416C239.824 34.416 238.924 34.6701 238.172 35.1678C237.421 35.6655 236.849 36.3961 236.436 37.349C236.033 38.302 235.832 39.4667 235.832 40.8221C235.832 42.188 236.023 43.3527 236.436 44.3163C236.838 45.2904 237.421 46.021 238.172 46.5293C238.924 47.0375 239.824 47.3023 240.872 47.3023C241.921 47.3023 242.81 47.0481 243.562 46.5399C244.314 46.0316 244.885 45.2904 245.288 44.3269C245.69 43.3633 245.891 42.188 245.891 40.8221C245.891 39.4667 245.69 38.3126 245.288 37.3596C244.885 36.3961 244.303 35.6655 243.551 35.1678ZM242.567 44.041C242.143 44.761 241.571 45.121 240.862 45.121C240.385 45.121 239.972 44.9622 239.623 44.6445C239.274 44.3269 238.998 43.8504 238.808 43.2151C238.617 42.5798 238.522 41.7856 238.522 40.8221C238.522 39.4138 238.744 38.3444 239.168 37.6349C239.591 36.9255 240.163 36.5761 240.872 36.5761C241.349 36.5761 241.762 36.7349 242.111 37.0526C242.461 37.3702 242.736 37.8361 242.927 38.4714C243.117 39.1067 243.212 39.8797 243.212 40.8327C243.202 42.2515 243.001 43.3316 242.567 44.041Z" fill="#2B688E"/>
<path d="M249.47 43.9034V43.8717C249.756 43.8187 249.989 43.7023 250.169 43.5117C250.349 43.3211 250.434 43.0775 250.434 42.8022C250.434 42.5375 250.36 42.294 250.211 42.0716C250.063 41.8493 249.862 41.6798 249.597 41.5528C249.332 41.4257 249.025 41.3622 248.676 41.3622C248.327 41.3622 248.019 41.4257 247.744 41.5528C247.469 41.6798 247.247 41.8598 247.088 42.0822C246.929 42.3046 246.844 42.5693 246.834 42.8552H247.871C247.871 42.7281 247.914 42.6116 247.988 42.5163C248.062 42.421 248.157 42.3469 248.284 42.294C248.401 42.241 248.538 42.2199 248.687 42.2199C248.835 42.2199 248.962 42.2516 249.068 42.3046C249.174 42.3575 249.258 42.4316 249.322 42.5269C249.385 42.6222 249.417 42.7387 249.417 42.8658C249.417 43.0034 249.385 43.1199 249.311 43.2152C249.237 43.3211 249.142 43.3952 249.015 43.4481C248.888 43.5011 248.75 43.5328 248.581 43.5328H248.104V44.327H248.581C248.771 44.327 248.941 44.3587 249.078 44.4117C249.216 44.4752 249.322 44.5493 249.407 44.6552C249.491 44.7611 249.523 44.8776 249.523 45.0152C249.523 45.1529 249.491 45.2694 249.417 45.3752C249.343 45.4811 249.248 45.5552 249.121 45.6188C248.994 45.6823 248.845 45.7035 248.687 45.7035C248.528 45.7035 248.39 45.6823 248.263 45.6294C248.136 45.5764 248.041 45.5023 247.956 45.407C247.882 45.3117 247.839 45.2058 247.829 45.0788H246.738C246.738 45.3752 246.823 45.6399 246.992 45.8623C247.162 46.0847 247.384 46.2647 247.681 46.3917C247.967 46.5188 248.305 46.5823 248.676 46.5823C249.057 46.5823 249.396 46.5188 249.692 46.3917C249.989 46.2647 250.222 46.0847 250.391 45.8623C250.561 45.6399 250.645 45.3752 250.645 45.0893C250.645 44.7717 250.55 44.507 250.349 44.2952C250.137 44.0834 249.851 43.9564 249.47 43.9034Z" fill="#2B688E"/>
<path d="M240.279 74.7584C240.015 74.5572 239.708 74.4407 239.358 74.4196C239.009 74.3878 238.68 74.4513 238.384 74.6102C238.088 74.769 237.855 75.0019 237.664 75.3408C237.473 75.669 237.357 76.082 237.315 76.5796C237.272 77.0773 237.315 77.5114 237.452 77.8608C237.579 78.2208 237.78 78.4961 238.045 78.6973C238.31 78.8985 238.617 79.015 238.966 79.0362C239.316 79.0679 239.644 79.0044 239.93 78.8456C240.226 78.6867 240.459 78.4538 240.65 78.1255C240.841 77.7973 240.957 77.3844 240.999 76.8867C241.042 76.389 240.999 75.9549 240.862 75.6055C240.745 75.2349 240.544 74.9596 240.279 74.7584Z" fill="#2B688E"/>
<path d="M233.82 76.3362C233.672 76.1985 233.471 76.0926 233.238 76.0291L231.915 75.6797L231.406 77.5856L232.698 77.935C233.132 78.0515 233.46 78.0515 233.693 77.935C233.926 77.8186 234.075 77.6386 234.138 77.3844C234.191 77.1938 234.191 77.0138 234.138 76.8338C234.075 76.6327 233.979 76.4738 233.82 76.3362Z" fill="#2B688E"/>
<path d="M249.332 11.3225C249.555 11.1954 249.692 10.9943 249.745 10.7401C249.788 10.5495 249.767 10.3695 249.703 10.1895C249.639 10.0095 249.523 9.86129 249.364 9.72364C249.205 9.59658 249.004 9.50128 248.761 9.45893L247.416 9.19421L247.035 11.1319L248.348 11.386C248.782 11.4813 249.11 11.4602 249.332 11.3225Z" fill="#2B688E"/>
<path d="M233.81 73.4878L232.582 73.1595L232.094 74.9702L233.302 75.2878C233.503 75.3408 233.693 75.3514 233.873 75.3196C234.053 75.2878 234.212 75.2137 234.35 75.0972C234.487 74.9808 234.572 74.8325 234.625 74.6419C234.689 74.3984 234.657 74.1655 234.53 73.9537C234.403 73.7419 234.17 73.5831 233.81 73.4878Z" fill="#2B688E"/>
<path d="M236.192 9.12008C236.489 9.06714 236.722 8.97185 236.891 8.83419C237.06 8.69654 237.166 8.52713 237.219 8.33653C237.272 8.14594 237.283 7.93417 237.24 7.70122C237.198 7.46827 237.124 7.27768 236.997 7.11885C236.87 6.96002 236.722 6.84355 236.51 6.76943C236.309 6.7059 236.054 6.69531 235.747 6.74825L234.593 6.94944L235.017 9.32127L236.192 9.12008Z" fill="#2B688E"/>
<path d="M210.695 29.3125C211.15 29.5348 211.563 29.6407 211.945 29.6513C212.326 29.6513 212.654 29.5666 212.94 29.3972C213.226 29.2278 213.438 28.9736 213.596 28.656C213.755 28.3383 213.808 28.0101 213.766 27.6818C213.723 27.3536 213.586 27.0359 213.353 26.75C213.12 26.4642 212.77 26.1994 212.315 25.9771C211.86 25.7547 211.447 25.6488 211.066 25.6382C210.685 25.6277 210.356 25.723 210.07 25.8924C209.784 26.0724 209.573 26.3159 209.414 26.6336C209.255 26.9512 209.202 27.2795 209.244 27.6077C209.287 27.936 209.424 28.243 209.657 28.5395C209.901 28.836 210.24 29.0901 210.695 29.3125Z" fill="#2B688E"/>
<path d="M241.349 10.5178C241.624 10.6978 241.942 10.7931 242.291 10.8037C242.641 10.8143 242.958 10.7296 243.244 10.5496C243.53 10.3802 243.752 10.1154 243.922 9.77661C244.091 9.43778 244.176 9.01424 244.186 8.51658C244.197 8.01891 244.123 7.59537 243.964 7.24595C243.805 6.89653 243.594 6.63182 243.318 6.45181C243.043 6.27181 242.725 6.17651 242.376 6.16592C242.016 6.15533 241.698 6.24004 241.423 6.42005C241.137 6.58946 240.915 6.85418 240.745 7.19301C240.576 7.53184 240.491 7.95538 240.48 8.45304C240.47 8.95071 240.544 9.37425 240.703 9.72367C240.862 10.0731 241.073 10.3378 241.349 10.5178Z" fill="#2B688E"/>
<path d="M242.037 0.0351562C218.647 0.0351562 199.683 18.9992 199.683 42.3893C199.683 65.7794 218.647 84.7434 242.037 84.7434C265.427 84.7434 284.391 65.7794 284.391 42.3893C284.391 18.9992 265.427 0.0351562 242.037 0.0351562ZM273.623 24.8653C273.951 24.8759 274.258 24.9923 274.544 25.2041C274.83 25.4159 275.073 25.7335 275.285 26.1677L276.238 28.1477L270.69 30.8266L270.287 29.9901L272.384 28.9736L271.833 27.8406C271.823 27.8195 271.823 27.8089 271.812 27.7877L269.165 27.6712L268.699 26.7183L271.547 26.8665C271.537 26.803 271.526 26.7288 271.526 26.6653C271.526 26.3159 271.632 25.9982 271.812 25.7335C272.003 25.4688 272.267 25.257 272.606 25.0876C272.966 24.9288 273.294 24.8547 273.623 24.8653ZM272.31 21.1381L268.625 26.5488L268.042 25.7441L269.027 24.3358L267.619 22.3875L265.967 22.8852L265.385 22.0911L271.685 20.2698L272.31 21.1381ZM266.274 14.4144L264.442 16.3627L266.677 18.4698L268.508 16.5215L269.186 17.1568L264.961 21.6358L264.284 21.0005L266.126 19.0416L263.892 16.9345L262.049 18.8933L261.372 18.258L265.596 13.7791L266.274 14.4144ZM259.656 9.76602L260.44 10.2637L259.01 12.5296L261.605 14.1708L263.034 11.9049L263.828 12.4026L260.546 17.6121L259.752 17.1145L261.181 14.8379L258.587 13.1967L257.157 15.4732L256.374 14.9756L259.656 9.76602ZM255.993 8.12479L255.813 14.6685L254.891 14.3085L254.966 12.5826L252.721 11.7037L251.598 13.0167L250.677 12.6567L254.987 7.72243L255.993 8.12479ZM247.151 5.70002L249.364 6.13415C249.798 6.21886 250.137 6.35651 250.391 6.55769C250.645 6.75887 250.815 6.98123 250.91 7.25654C251.005 7.52125 251.016 7.80714 250.963 8.10362C250.91 8.35774 250.825 8.55892 250.698 8.70716C250.571 8.8554 250.423 8.97188 250.243 9.046C250.063 9.12012 249.883 9.16247 249.693 9.17306L249.682 9.23659C249.883 9.28953 250.063 9.38483 250.233 9.54366C250.402 9.70249 250.529 9.90367 250.614 10.1472C250.698 10.3907 250.709 10.666 250.645 10.9837C250.582 11.2908 250.455 11.5555 250.264 11.7673C250.074 11.979 249.809 12.1378 249.481 12.2226C249.152 12.3073 248.75 12.2967 248.284 12.212L245.965 11.7567L247.151 5.70002ZM239.951 6.74829C240.195 6.28239 240.533 5.92238 240.957 5.67884C241.381 5.43531 241.857 5.30825 242.386 5.31883C242.916 5.32942 243.392 5.46707 243.805 5.7212C244.218 5.98591 244.546 6.34592 244.779 6.82241C245.012 7.29889 245.129 7.86008 245.108 8.52716C245.097 9.18365 244.97 9.74484 244.716 10.2213C244.462 10.6978 244.134 11.0472 243.71 11.2908C243.286 11.5343 242.81 11.6614 242.281 11.6508C241.751 11.6402 241.275 11.5025 240.862 11.2484C240.449 10.9837 240.12 10.6237 239.888 10.1472C239.655 9.67072 239.538 9.09894 239.559 8.45304C239.57 7.78596 239.697 7.22477 239.951 6.74829ZM235.716 5.94356C236.192 5.85885 236.594 5.88003 236.933 5.9965C237.272 6.11297 237.547 6.30357 237.749 6.57887C237.96 6.85417 238.087 7.17183 238.162 7.54243C238.225 7.91302 238.204 8.26245 238.109 8.59069C238.013 8.91893 237.812 9.19424 237.537 9.4166C237.262 9.64954 236.88 9.79778 236.414 9.88249L235.165 10.0943L235.546 12.2226L234.625 12.392L233.556 6.32474L235.716 5.94356ZM227.615 8.28362L229.204 12.519L229.257 12.4979L230.612 7.16124L231.417 6.86476L233.566 12.6355L232.698 12.9638L231.11 8.72834L231.057 8.74952L229.712 14.0756L228.907 14.372L226.758 8.61187L227.615 8.28362ZM221.305 11.7143L222.713 13.9908L225.328 12.3814L223.92 10.1049L224.714 9.61778L227.954 14.8591L227.16 15.3462L225.752 13.0591L223.136 14.6685L224.545 16.9556L223.751 17.4427L220.511 12.2014L221.305 11.7143ZM215.957 16.5427C216.084 16.0768 216.349 15.6532 216.741 15.2932C217.133 14.9332 217.567 14.7003 218.043 14.5944C218.52 14.4885 219.007 14.5309 219.505 14.7109C220.002 14.8909 220.479 15.2191 220.923 15.7062C221.368 16.1827 221.675 16.6803 221.813 17.1886C221.961 17.6968 221.972 18.1839 221.834 18.6604C221.707 19.1263 221.442 19.5498 221.051 19.9098C220.659 20.2698 220.225 20.5028 219.748 20.6087C219.272 20.7146 218.785 20.6722 218.287 20.4816C217.789 20.3016 217.313 19.9734 216.868 19.4863C216.423 19.0098 216.116 18.5121 215.979 18.0039C215.841 17.4956 215.83 17.0086 215.957 16.5427ZM211.764 21.3393C211.828 21.011 211.976 20.6828 212.199 20.3863C212.431 20.0687 212.696 19.8357 212.993 19.6981C213.289 19.5604 213.586 19.4969 213.882 19.5286C214.179 19.5498 214.454 19.6557 214.697 19.8357C214.973 20.0369 215.153 20.291 215.237 20.5875C215.312 20.884 215.29 21.191 215.174 21.4981L215.216 21.5299C215.513 21.2334 215.83 21.0746 216.169 21.0534C216.519 21.0322 216.847 21.1275 217.154 21.3605C217.429 21.5616 217.62 21.8158 217.726 22.1228C217.832 22.4299 217.842 22.7687 217.779 23.1182C217.705 23.4676 217.546 23.817 217.302 24.1558C217.059 24.4841 216.783 24.7382 216.476 24.9182C216.169 25.0982 215.862 25.1829 215.544 25.1829C215.227 25.1829 214.93 25.0876 214.655 24.897L215.216 24.1347C215.375 24.23 215.534 24.2723 215.703 24.2617C215.873 24.2511 216.042 24.1982 216.212 24.0923C216.381 23.9864 216.529 23.8488 216.656 23.6688C216.805 23.4782 216.889 23.277 216.942 23.0758C216.985 22.8746 216.974 22.684 216.921 22.5146C216.857 22.3346 216.752 22.197 216.593 22.0699C216.423 21.9428 216.254 21.8793 216.063 21.8687C215.873 21.8581 215.682 21.9111 215.492 22.017C215.301 22.1228 215.121 22.2923 214.952 22.5252L214.644 22.9487L214.03 22.504L214.337 22.0805C214.475 21.9005 214.56 21.7099 214.592 21.5193C214.623 21.3287 214.613 21.1487 214.56 20.9899C214.496 20.8204 214.39 20.6828 214.232 20.5663C214.073 20.4498 213.924 20.3863 213.755 20.3757C213.586 20.3651 213.427 20.3863 213.268 20.471C213.109 20.5557 212.971 20.6722 212.844 20.8416C212.728 21.0005 212.643 21.1805 212.601 21.3605C212.559 21.5405 212.559 21.7205 212.601 21.8899C212.643 22.0593 212.739 22.197 212.887 22.3134L212.357 23.0334C212.093 22.8323 211.923 22.5781 211.828 22.2711C211.711 21.9852 211.701 21.6675 211.764 21.3393ZM208.651 26.263C208.884 25.7865 209.202 25.4159 209.615 25.1512C210.028 24.8864 210.494 24.7488 211.023 24.7382C211.553 24.7276 212.114 24.8653 212.707 25.1512C213.3 25.437 213.755 25.7865 214.073 26.21C214.39 26.6335 214.581 27.0889 214.623 27.5759C214.666 28.063 214.581 28.5501 214.348 29.0266C214.115 29.503 213.797 29.8842 213.384 30.1489C212.971 30.4137 212.506 30.5513 211.976 30.5619C211.447 30.5725 210.886 30.4348 210.293 30.1489C209.7 29.8631 209.244 29.5136 208.927 29.0901C208.609 28.6665 208.418 28.2112 208.376 27.7242C208.323 27.2265 208.418 26.7394 208.651 26.263ZM230.252 72.1854C230.125 72.3548 230.019 72.5454 229.934 72.736C228.325 72.916 226.197 74.2078 224.682 74.2078C224.354 74.2078 224.047 74.1443 223.793 73.9961C222.056 72.9901 222.776 68.4688 221.241 67.177C220.638 66.6688 219.6 66.5947 218.478 66.5947C218.001 66.5947 217.503 66.6053 217.027 66.6053C215.788 66.6053 214.644 66.51 214.083 65.8429C212.802 64.3181 215.015 60.3051 214.009 58.5686C213.014 56.8426 208.429 56.7685 207.741 54.8732C207.063 53.0096 210.515 50.013 210.166 48.0118C209.827 46.0741 205.549 44.4329 205.549 42.3893C205.549 40.3457 209.827 38.7045 210.166 36.7668C210.504 34.8291 207.275 31.949 207.698 30.0748C207.868 30.1172 208.037 30.1701 208.207 30.2337C208.069 30.9643 208.725 32.0761 209.361 33.1561C210.113 34.4055 210.886 35.7079 210.684 36.8621C210.494 37.9739 209.34 38.9162 208.228 39.8163C207.169 40.6845 206.068 41.574 206.068 42.3893C206.068 43.2046 207.158 44.1046 208.228 44.9623C209.34 45.8623 210.483 46.8047 210.684 47.9165C210.886 49.0707 210.113 50.373 209.361 51.6225C208.673 52.7661 207.963 53.9626 208.228 54.6826C208.503 55.4344 209.827 55.9003 211.108 56.345C212.474 56.8215 213.882 57.3085 214.454 58.2933C215.036 59.2992 214.75 60.771 214.486 62.2004C214.232 63.524 213.977 64.8899 214.486 65.4935C214.909 66.0017 215.957 66.0652 217.016 66.0652C217.249 66.0652 217.493 66.0652 217.736 66.0547C217.98 66.0547 218.223 66.0441 218.467 66.0441C219.822 66.0441 220.871 66.1605 221.569 66.7535C222.448 67.4947 222.692 68.9665 222.914 70.396C223.126 71.7301 223.348 73.1172 224.036 73.509C224.206 73.6043 224.407 73.6466 224.661 73.6466C225.371 73.6466 226.334 73.2866 227.266 72.9266C228.282 72.5454 229.331 72.1431 230.241 72.1431C230.252 72.1748 230.252 72.1748 230.252 72.1854ZM235.525 74.8008C235.462 75.0443 235.356 75.2455 235.218 75.3937C235.08 75.542 234.921 75.6373 234.741 75.7008C234.561 75.7643 234.371 75.7961 234.18 75.7855L234.17 75.8385C234.36 75.902 234.54 76.0185 234.699 76.1879C234.858 76.3573 234.964 76.5585 235.038 76.8126C235.102 77.0561 235.102 77.342 235.017 77.6491C234.932 77.9562 234.794 78.2103 234.583 78.4115C234.371 78.6127 234.106 78.7503 233.767 78.8138C233.429 78.8774 233.037 78.8456 232.571 78.7185L230.294 78.1044L231.883 72.1537L234.064 72.736C234.487 72.8525 234.816 73.0113 235.059 73.2231C235.303 73.4349 235.462 73.6784 235.536 73.9537C235.61 74.229 235.61 74.5149 235.525 74.8008ZM241.433 78.6127C241.158 79.068 240.798 79.3962 240.364 79.6186C239.93 79.8409 239.443 79.9256 238.913 79.8833C238.384 79.8409 237.918 79.6715 237.526 79.3856C237.135 79.0997 236.827 78.7079 236.626 78.2209C236.425 77.7338 236.351 77.162 236.404 76.5055C236.457 75.8491 236.626 75.2984 236.902 74.8431C237.177 74.3878 237.537 74.0596 237.971 73.8372C238.405 73.6149 238.892 73.5302 239.422 73.5725C239.951 73.6149 240.417 73.7843 240.809 74.0702C241.2 74.3561 241.508 74.7478 241.709 75.2349C241.91 75.722 241.984 76.2938 241.931 76.9503C241.878 77.6067 241.709 78.1573 241.433 78.6127ZM215.333 42.3893C215.333 27.6395 227.287 15.685 242.037 15.685C256.787 15.685 268.741 27.6395 268.741 42.3893C268.741 57.1391 256.787 69.0936 242.037 69.0936C227.287 69.0936 215.333 57.1391 215.333 42.3893ZM248.263 80.9527L248.104 79.4809L243.996 79.9256L244.155 81.408L243.265 81.5033L243.022 79.2374L243.424 79.195C243.551 79.068 243.657 78.888 243.752 78.6656C243.848 78.4432 243.922 78.1362 243.964 77.7656C244.006 77.395 244.017 76.9185 243.985 76.3467L243.848 73.7419L247.628 73.3396L248.2 78.6762L248.898 78.6021L249.142 80.8574L248.263 80.9527ZM254.563 77.8185L253.557 76.4208L251.249 77.1197L251.175 78.8456L250.233 79.1315L250.582 72.5984L251.609 72.2913L255.506 77.5538L254.563 77.8185ZM276.333 54.8732C275.645 56.7685 271.06 56.8426 270.065 58.5686C269.059 60.3051 271.272 64.3181 269.991 65.8429C269.43 66.51 268.286 66.6053 267.047 66.6053C266.571 66.6053 266.073 66.5947 265.596 66.5947C264.485 66.5947 263.447 66.6688 262.833 67.177C261.308 68.4583 262.018 72.9901 260.281 73.9961C260.027 74.1443 259.72 74.2078 259.392 74.2078C258.28 74.2078 256.84 73.509 255.516 73.0643C255.421 72.8525 255.336 72.6301 255.241 72.4184C255.749 72.5666 256.268 72.7678 256.787 72.9584C257.719 73.3078 258.682 73.6784 259.392 73.6784C259.646 73.6784 259.857 73.636 260.016 73.5407C260.705 73.1384 260.927 71.7619 261.139 70.4277C261.372 68.9983 261.605 67.5265 262.483 66.7853C263.182 66.1923 264.231 66.0758 265.586 66.0758C265.829 66.0758 266.073 66.0758 266.316 66.0864C266.56 66.0864 266.804 66.097 267.037 66.097C268.106 66.097 269.144 66.0229 269.567 65.5252C270.075 64.9217 269.811 63.5558 269.567 62.2322C269.292 60.8027 269.017 59.3309 269.599 58.325C270.171 57.3297 271.579 56.8426 272.945 56.3661C274.226 55.9214 275.55 55.4661 275.825 54.7038C276.09 53.9731 275.38 52.7872 274.692 51.6437C273.94 50.3942 273.167 49.0918 273.368 47.9377C273.559 46.8259 274.713 45.8835 275.825 44.9835C276.884 44.1152 277.985 43.2258 277.985 42.4105C277.985 41.5951 276.894 40.6951 275.825 39.8375C274.713 38.9374 273.57 37.995 273.368 36.8832C273.167 35.7291 273.94 34.4267 274.692 33.1773C275.2 32.3196 275.719 31.4513 275.836 30.7631C276.016 30.7313 276.196 30.6995 276.376 30.6572C276.196 32.5102 273.58 35.0303 273.887 36.788C274.226 38.7257 278.504 40.3669 278.504 42.4105C278.504 44.4541 274.226 46.0953 273.887 48.033C273.559 50.013 277.011 53.0096 276.333 54.8732Z" fill="#2B688E"/>
<path d="M273.114 28.6348L275.126 27.6607L274.618 26.6124C274.48 26.3371 274.332 26.136 274.173 25.9983C274.004 25.8712 273.834 25.7971 273.633 25.7971C273.432 25.7971 273.241 25.8395 273.03 25.9348C272.818 26.0301 272.659 26.1571 272.553 26.316C272.447 26.4748 272.394 26.6442 272.394 26.856C272.394 27.0677 272.468 27.3007 272.595 27.576L273.114 28.6348Z" fill="#2B688E"/>
<path d="M217.546 18.8616C217.885 19.2322 218.234 19.4863 218.584 19.6239C218.933 19.7616 219.272 19.804 219.6 19.7404C219.928 19.6769 220.214 19.5287 220.479 19.2851C220.733 19.0416 220.902 18.7663 220.987 18.438C221.072 18.1204 221.051 17.7815 220.934 17.4109C220.818 17.0509 220.585 16.6803 220.246 16.3203C219.907 15.9603 219.558 15.6956 219.208 15.558C218.859 15.4203 218.52 15.3779 218.192 15.4415C217.864 15.505 217.578 15.6532 217.313 15.8968C217.048 16.1403 216.879 16.4156 216.805 16.7439C216.72 17.0615 216.741 17.4004 216.858 17.771C216.974 18.131 217.207 18.5016 217.546 18.8616Z" fill="#2B688E"/>
<path d="M249.343 8.71772C249.523 8.67536 249.671 8.59066 249.798 8.46359C249.925 8.33653 250.01 8.1777 250.042 7.98711C250.095 7.73298 250.042 7.51063 249.904 7.30944C249.767 7.10826 249.512 6.97061 249.152 6.89649L247.903 6.65295L247.543 8.48477L248.761 8.72831C248.972 8.77066 249.163 8.77066 249.343 8.71772Z" fill="#2B688E"/>
<path d="M271.113 21.3816L271.082 21.3392L268.413 22.144L269.515 23.6581L271.113 21.3816Z" fill="#2B688E"/>
<path d="M244.779 74.4514L244.875 76.2514C244.896 76.6855 244.896 77.0773 244.875 77.4267C244.853 77.7762 244.811 78.0938 244.748 78.3691C244.684 78.6444 244.61 78.8774 244.515 79.0786L247.331 78.7715L246.844 74.229L244.779 74.4514Z" fill="#2B688E"/>
<path d="M251.397 73.5089L251.281 76.2937L253.07 75.7537L251.44 73.4983L251.397 73.5089Z" fill="#2B688E"/>
<path d="M255.114 8.98236L255.061 8.96118L253.261 11.0789L254.998 11.7566L255.114 8.98236Z" fill="#2B688E"/>
</g>
<g clip-path="url(#clip3_1_1528)">
<path d="M344.862 40.0598C335.332 28.9313 318.052 31.5996 318.052 42.5481C318.052 46.7306 321.44 50.1189 325.623 50.1189C334.21 50.1189 334.623 38.5774 344.862 40.0598Z" fill="#2B688E"/>
<path d="M338.276 44.7189C347.806 55.8474 365.086 53.1791 365.086 42.2306C365.086 38.0481 361.698 34.6598 357.515 34.6598C348.928 34.6598 348.515 46.2013 338.276 44.7189Z" fill="#2B688E"/>
<path d="M349.362 7.02355L347.329 6.65295L346.917 8.41065C346.811 8.83419 346.705 9.21538 346.578 9.54362C346.461 9.87187 346.324 10.1578 346.196 10.4119C346.059 10.6554 345.921 10.8566 345.773 11.026L348.558 11.5343L349.362 7.02355Z" fill="#2B688E"/>
<path d="M346.758 75.2137C346.556 74.8854 346.313 74.6525 346.016 74.5042C345.72 74.356 345.392 74.3031 345.042 74.3454C344.693 74.3878 344.386 74.5042 344.121 74.7054C343.867 74.9172 343.676 75.1925 343.549 75.5525C343.422 75.9125 343.391 76.3466 343.443 76.8443C343.496 77.342 343.623 77.7549 343.814 78.0832C344.015 78.4114 344.259 78.6444 344.555 78.7926C344.852 78.9408 345.18 78.9938 345.529 78.9514C345.879 78.9091 346.186 78.7926 346.44 78.5808C346.705 78.3796 346.895 78.0938 347.012 77.7337C347.128 77.3737 347.171 76.9502 347.118 76.4525C347.075 75.9443 346.948 75.5313 346.758 75.2137Z" fill="#2B688E"/>
<path d="M334.793 9.28951C335.089 9.22597 335.322 9.13068 335.481 8.98244C335.64 8.8342 335.746 8.67537 335.799 8.47419C335.852 8.27301 335.852 8.06124 335.799 7.83888C335.756 7.60593 335.672 7.41534 335.544 7.25651C335.417 7.09768 335.259 6.99179 335.047 6.92826C334.835 6.86473 334.581 6.86473 334.284 6.92826L333.141 7.16121L333.628 9.52245L334.793 9.28951Z" fill="#2B688E"/>
<path d="M339.981 10.5602C340.267 10.7296 340.585 10.8143 340.934 10.8037C341.283 10.7931 341.601 10.6978 341.876 10.5178C342.152 10.3378 342.364 10.0731 342.522 9.7237C342.681 9.37428 342.745 8.95074 342.734 8.45308C342.724 7.95542 342.639 7.53188 342.469 7.19304C342.3 6.85421 342.078 6.60008 341.792 6.42008C341.506 6.25066 341.188 6.16595 340.839 6.17654C340.489 6.18713 340.172 6.28243 339.896 6.46243C339.621 6.64244 339.409 6.90715 339.25 7.25657C339.092 7.606 339.028 8.02954 339.039 8.5272C339.049 9.02486 339.134 9.4484 339.303 9.78723C339.473 10.1367 339.695 10.3908 339.981 10.5602Z" fill="#2B688E"/>
<path d="M323.474 13.8637C323.728 13.7049 323.908 13.5249 324.014 13.3343C324.12 13.1437 324.151 12.9531 324.13 12.7519C324.109 12.5508 324.035 12.3496 323.908 12.159C323.781 11.9578 323.632 11.8096 323.463 11.7037C323.294 11.5978 323.103 11.5554 322.881 11.566C322.669 11.5766 322.425 11.6719 322.171 11.8413L321.187 12.4661L322.489 14.4991L323.474 13.8637Z" fill="#2B688E"/>
<path d="M329.731 72.3125C329.446 72.1961 329.202 72.1537 328.99 72.1643C328.778 72.1749 328.598 72.249 328.461 72.3761C328.313 72.5031 328.196 72.6725 328.111 72.8843C328.027 73.0961 327.995 73.2973 328.016 73.4879C328.037 73.6679 328.122 73.8373 328.27 73.9855C328.418 74.1337 328.63 74.2608 328.906 74.3773L330.007 74.8114L330.822 72.7361L329.731 72.3125Z" fill="#2B688E"/>
<path d="M341.569 0.0351562C318.179 0.0351562 299.215 18.9992 299.215 42.3893C299.215 65.7794 318.179 84.7434 341.569 84.7434C364.96 84.7434 383.924 65.7794 383.924 42.3893C383.924 18.9992 364.96 0.0351562 341.569 0.0351562ZM363.128 15.9391C363.202 15.6215 363.371 15.325 363.625 15.0497C363.88 14.7744 364.165 14.5732 364.472 14.4673C364.78 14.3614 365.108 14.3509 365.457 14.4461C365.807 14.5414 366.145 14.7426 366.505 15.0709L368.126 16.5533L363.954 21.0852L363.265 20.4604L364.843 18.7451L363.911 17.8874C363.901 17.8768 363.89 17.8557 363.869 17.8451L361.359 18.7133L360.576 17.9933L363.287 17.0827C363.255 17.0192 363.212 16.9662 363.191 16.9027C363.064 16.5744 363.043 16.2568 363.128 15.9391ZM368.274 42.3893C368.274 57.1391 356.319 69.0936 341.569 69.0936C326.82 69.0936 314.865 57.1391 314.865 42.3893C314.865 27.6395 326.82 15.685 341.569 15.685C356.319 15.685 368.274 27.6395 368.274 42.3893ZM361.91 11.4919L360.459 17.8768L359.623 17.3474L360.025 15.6744L357.992 14.3826L356.637 15.4521L355.8 14.9226L360.989 10.9202L361.91 11.4919ZM352.942 7.09771L353.81 7.44713L352.825 9.93543L355.684 11.0684L356.669 8.5801L357.537 8.92952L355.26 14.6579L354.392 14.3085L355.387 11.8096L352.529 10.6766L351.533 13.1755L350.665 12.8367L352.942 7.09771ZM344.291 10.7508L344.693 10.8249C344.852 10.7402 345.011 10.5919 345.159 10.4013C345.318 10.2107 345.466 9.94602 345.614 9.5966C345.763 9.25777 345.9 8.80246 346.038 8.24127L346.641 5.71061L350.379 6.38828L349.426 11.6825L350.114 11.8096L349.712 14.0438L348.833 13.885L349.098 12.4237L345.021 11.6825L344.757 13.1438L343.878 12.9849L344.291 10.7508ZM338.435 6.84358C338.668 6.3671 338.986 5.9965 339.399 5.73179C339.822 5.47766 340.288 5.34001 340.828 5.32942C341.358 5.31883 341.834 5.43531 342.258 5.67884C342.681 5.92238 343.02 6.28239 343.264 6.74829C343.507 7.21418 343.645 7.77537 343.655 8.43186C343.666 9.08835 343.56 9.66013 343.327 10.1366C343.094 10.6131 342.777 10.9837 342.364 11.2484C341.951 11.5131 341.474 11.6508 340.945 11.6614C340.415 11.672 339.928 11.5555 339.515 11.3119C339.092 11.0684 338.753 10.7084 338.509 10.2425C338.255 9.77661 338.128 9.21541 338.118 8.55893C338.096 7.89185 338.213 7.32007 338.435 6.84358ZM334.232 6.13415C334.698 6.03885 335.11 6.03885 335.449 6.14474C335.788 6.25063 336.074 6.44122 336.286 6.70593C336.498 6.97065 336.646 7.2883 336.72 7.6589C336.794 8.0295 336.783 8.37892 336.699 8.70716C336.603 9.03541 336.423 9.3213 336.148 9.55425C335.873 9.78719 335.502 9.95661 335.036 10.0519L333.797 10.306L334.232 12.4237L333.321 12.6143L332.072 6.57887L334.232 6.13415ZM326.195 8.70716L327.9 12.9002L327.953 12.879L329.149 7.51066L329.943 7.18242L332.262 12.8896L331.404 13.2391L329.7 9.05659L329.647 9.07776L328.45 14.4461L327.656 14.7744L325.337 9.06717L326.195 8.70716ZM321.822 11.1108C322.224 10.8566 322.605 10.7084 322.965 10.6872C323.325 10.666 323.654 10.7402 323.95 10.9096C324.247 11.079 324.49 11.3225 324.691 11.6402C324.893 11.9578 325.009 12.2861 325.041 12.6249C325.073 12.9638 324.998 13.292 324.829 13.6097C324.66 13.9273 324.374 14.2132 323.971 14.4673L322.902 15.145L324.067 16.9662L323.283 17.4639L319.969 12.2755L321.822 11.1108ZM318.158 13.6626L322.351 18.1733L321.674 18.8086L318.021 14.8803L315.892 16.8497L319.545 20.7781L318.868 21.4134L314.675 16.9027L318.158 13.6626ZM316.559 66.6053C315.32 66.6053 314.177 66.51 313.616 65.8429C312.335 64.3181 314.548 60.3051 313.542 58.5686C312.546 56.8426 307.961 56.7685 307.273 54.8732C306.596 53.0096 310.047 50.013 309.698 48.0118C309.359 46.0741 305.081 44.4329 305.081 42.3893C305.081 40.3457 309.359 38.7045 309.698 36.7668C310.047 34.7655 306.596 31.769 307.273 29.9054C307.961 28.0101 312.546 27.9359 313.542 26.21C314.548 24.4735 312.335 20.4604 313.616 18.9357C313.616 18.9357 313.616 18.9357 313.626 18.9357C313.753 19.0627 313.902 19.158 314.039 19.2639C314.039 19.2639 314.029 19.2745 314.018 19.2745C313.51 19.8781 313.775 21.244 314.018 22.5676C314.293 23.997 314.569 25.4688 313.986 26.4747C313.415 27.47 312.006 27.9571 310.64 28.4336C309.359 28.8783 308.036 29.3336 307.76 30.096C307.496 30.8266 308.205 32.0125 308.893 33.1561C309.645 34.4055 310.418 35.7079 310.217 36.8621C310.026 37.9739 308.872 38.9162 307.76 39.8163C306.701 40.6845 305.6 41.574 305.6 42.3893C305.6 43.2046 306.691 44.1046 307.76 44.9623C308.872 45.8623 310.016 46.8047 310.217 47.9165C310.418 49.0707 309.645 50.373 308.893 51.6225C308.205 52.7661 307.496 53.9626 307.76 54.6826C308.036 55.4344 309.359 55.9003 310.64 56.345C312.006 56.8215 313.415 57.3085 313.986 58.2933C314.569 59.2992 314.283 60.771 314.018 62.2004C313.764 63.524 313.51 64.8899 314.018 65.4935C314.442 66.0017 315.49 66.0652 316.549 66.0652C316.782 66.0652 317.025 66.0652 317.269 66.0547C317.512 66.0547 317.756 66.0441 317.999 66.0441C318.974 66.0441 319.789 66.1182 320.424 66.3723C320.287 66.51 320.138 66.6476 320.022 66.7959C319.45 66.6159 318.751 66.5735 317.999 66.5735C317.533 66.5947 317.036 66.6053 316.559 66.6053ZM323.251 75.2349L325.655 71.476L325.602 71.4442L321.674 74.2078L321.059 73.8161L321.928 69.083L321.875 69.0512L319.471 72.8101L318.73 72.3337L322.055 67.1453L323.008 67.7488L322.076 72.8419L322.14 72.8843L326.375 69.9089L327.328 70.5124L324.003 75.7008L323.251 75.2349ZM328.853 77.7338L329.71 75.5632L328.535 75.0973C328.514 75.0867 328.503 75.0761 328.482 75.0761L326.46 76.7914L325.475 76.3997L327.667 74.5678C327.614 74.5255 327.55 74.4831 327.518 74.4408C327.286 74.1761 327.148 73.8796 327.106 73.5619C327.063 73.2443 327.116 72.9054 327.254 72.5454C327.391 72.196 327.593 71.9101 327.836 71.6983C328.09 71.4866 328.387 71.3595 328.747 71.3278C329.107 71.296 329.499 71.3595 329.943 71.5395L331.987 72.3442L329.731 78.0726L328.853 77.7338ZM336.519 74.229L333.681 73.5937L332.506 78.8244L331.595 78.6232L332.94 72.609L336.688 73.4455L336.519 74.229ZM341.749 80.0103L340.616 79.9362L338.711 77.0456L338.075 77.0032L337.895 79.7562L336.963 79.6927L337.355 73.5407L338.287 73.5937L338.118 76.1879L338.435 76.2091L340.998 73.7631L342.152 73.8372L339.42 76.4526L341.749 80.0103ZM347.87 78.0726C347.679 78.5703 347.393 78.9621 347.001 79.2586C346.61 79.555 346.154 79.735 345.625 79.788C345.095 79.8409 344.608 79.7668 344.164 79.5656C343.719 79.3644 343.359 79.0362 343.062 78.5915C342.777 78.1468 342.597 77.5962 342.522 76.9503C342.448 76.2938 342.512 75.722 342.702 75.2243C342.893 74.7267 343.179 74.3349 343.571 74.0384C343.962 73.7419 344.418 73.5619 344.947 73.509C345.477 73.456 345.964 73.5302 346.408 73.7313C346.853 73.9325 347.213 74.2608 347.51 74.7055C347.796 75.1502 347.976 75.7008 348.05 76.3573C348.113 77.0032 348.05 77.575 347.87 78.0726ZM354.487 76.4949C354.424 76.7808 354.307 77.0455 354.149 77.2785C353.99 77.522 353.789 77.7338 353.545 77.9138C353.302 78.0938 353.016 78.2315 352.687 78.3268C352.179 78.4856 351.682 78.4962 351.216 78.3797C350.739 78.2632 350.326 78.0091 349.956 77.6279C349.585 77.2467 349.31 76.7385 349.119 76.1138C348.928 75.489 348.876 74.9067 348.971 74.3878C349.066 73.869 349.267 73.4243 349.596 73.0537C349.924 72.6937 350.337 72.429 350.845 72.2701C351.152 72.1748 351.459 72.1325 351.766 72.1325C352.063 72.1431 352.349 72.196 352.613 72.3019C352.878 72.4078 353.122 72.5666 353.344 72.7678C353.566 72.969 353.746 73.2231 353.884 73.5196L352.984 73.7949C352.889 73.6149 352.772 73.4666 352.634 73.3502C352.497 73.2337 352.338 73.149 352.179 73.0854C352.01 73.0219 351.84 72.9902 351.65 72.9902C351.47 72.9902 351.279 73.0219 351.089 73.0749C350.75 73.1807 350.474 73.3607 350.252 73.6043C350.04 73.8584 349.903 74.1761 349.85 74.5467C349.797 74.9278 349.839 75.3514 349.987 75.8279C350.136 76.3044 350.337 76.6855 350.591 76.9714C350.845 77.2573 351.131 77.4373 351.449 77.522C351.766 77.6068 352.094 77.6068 352.433 77.5009C352.624 77.4479 352.793 77.3632 352.942 77.2573C353.09 77.1514 353.227 77.035 353.333 76.8973C353.439 76.7597 353.513 76.6008 353.566 76.4208C353.619 76.2514 353.63 76.0608 353.609 75.8596L354.509 75.5843C354.562 75.9232 354.551 76.2091 354.487 76.4949ZM358.162 76.0608L355.726 71.2854L354.022 72.1537L353.662 71.4442L357.908 69.2842L358.268 69.9936L356.552 70.8619L358.988 75.6373L358.162 76.0608ZM364.769 71.6242C364.61 71.9419 364.335 72.2384 363.975 72.5031L362.122 73.869L358.469 68.9136L359.221 68.363L360.692 70.3642L361.804 69.5489C362.175 69.2736 362.524 69.1042 362.874 69.03C363.223 68.9559 363.541 68.9877 363.837 69.1042C364.134 69.2206 364.388 69.4324 364.61 69.7289C364.832 70.0254 364.949 70.3324 364.981 70.6607C365.002 70.9783 364.938 71.3066 364.769 71.6242ZM375.866 54.8732C375.177 56.7685 370.593 56.8426 369.597 58.5686C368.591 60.3051 370.804 64.3181 369.523 65.8429C368.962 66.51 367.818 66.6053 366.58 66.6053C366.103 66.6053 365.605 66.5947 365.129 66.5947C364.515 66.5947 363.932 66.6264 363.424 66.7323C363.339 66.5735 363.244 66.4253 363.149 66.2664C363.71 66.1182 364.356 66.0652 365.129 66.0652C365.372 66.0652 365.616 66.0652 365.86 66.0758C366.103 66.0758 366.347 66.0864 366.58 66.0864C367.649 66.0864 368.687 66.0123 369.11 65.5146C369.618 64.9111 369.354 63.5452 369.11 62.2216C368.835 60.7922 368.56 59.3204 369.142 58.3144C369.714 57.3191 371.122 56.832 372.488 56.3556C373.769 55.9108 375.093 55.4555 375.368 54.6932C375.633 53.9626 374.923 52.7766 374.235 51.6331C373.483 50.3836 372.71 49.0812 372.912 47.9271C373.102 46.8153 374.256 45.8729 375.368 44.9729C376.427 44.1046 377.528 43.2152 377.528 42.3999C377.528 41.5846 376.438 40.6845 375.368 39.8269C374.256 38.9268 373.113 37.9845 372.912 36.8727C372.71 35.7185 373.483 34.4161 374.235 33.1667C374.923 32.0231 375.633 30.8266 375.368 30.1066C375.093 29.3548 373.769 28.8889 372.488 28.4442C371.122 27.9677 369.714 27.4806 369.142 26.4959C368.56 25.49 368.846 24.0182 369.11 22.5887C369.364 21.2652 369.618 19.8992 369.11 19.2957C369.047 19.2216 368.951 19.1792 368.856 19.1157C369.015 19.0416 369.184 18.9675 369.343 18.8827C369.354 18.8722 369.364 18.8616 369.386 18.851C369.428 18.8933 369.481 18.9145 369.513 18.9463C370.794 20.471 368.581 24.4841 369.587 26.2206C370.582 27.9465 375.167 28.0206 375.855 29.916C376.533 31.7796 373.081 34.7761 373.43 36.7774C373.769 38.7151 378.047 40.3563 378.047 42.3999C378.047 44.4435 373.769 46.0847 373.43 48.0224C373.092 50.013 376.543 53.0096 375.866 54.8732Z" fill="#2B688E"/>
<path d="M360.226 14.8697L360.883 12.159L360.84 12.1378L358.659 13.8637L360.226 14.8697Z" fill="#2B688E"/>
<path d="M363.17 69.8665C362.884 69.8347 362.577 69.93 362.249 70.1736L361.137 70.9889L362.386 72.6937L363.488 71.8783C363.699 71.7195 363.848 71.5395 363.943 71.3489C364.028 71.1583 364.059 70.9677 364.038 70.7771C364.017 70.5865 363.954 70.4171 363.837 70.2583C363.689 70.0359 363.456 69.9089 363.17 69.8665Z" fill="#2B688E"/>
<path d="M364.515 17.3579L365.383 18.1521L366.897 16.5109L366.039 15.7167C365.817 15.5049 365.595 15.3779 365.393 15.3143C365.192 15.2508 365.002 15.2508 364.822 15.3249C364.642 15.3885 364.472 15.5049 364.313 15.6744C364.155 15.8438 364.059 16.0238 364.006 16.2038C363.964 16.3838 363.975 16.5744 364.059 16.765C364.144 16.9556 364.292 17.1568 364.515 17.3579Z" fill="#2B688E"/>
</g>
<defs>
<clipPath id="clip0_1_1528">
<rect width="84.7083" height="84.7083" fill="white" transform="translate(0.618652 0.0351562)"/>
</clipPath>
<clipPath id="clip1_1_1528">
<rect width="84.7083" height="84.7083" fill="white" transform="translate(100.151 0.0351562)"/>
</clipPath>
<clipPath id="clip2_1_1528">
<rect width="84.7083" height="84.7083" fill="white" transform="translate(199.683 0.0351562)"/>
</clipPath>
<clipPath id="clip3_1_1528">
<rect width="84.7083" height="84.7083" fill="white" transform="translate(299.215 0.0351562)"/>
</clipPath>
</defs>
</svg>
