<svg width="160" height="51" viewBox="0 0 160 51" fill="none" xmlns="http://www.w3.org/2000/svg">
<g clip-path="url(#clip0_1_1409)">
<path d="M19.3001 9.00464L19.1726 13.1911C16.7326 12.9966 14.4351 12.898 12.2751 12.898C12.2501 15.3513 12.2376 18.0825 12.2376 21.0941C12.2376 25.7657 12.3051 30.1871 12.4376 34.3534H7.31759C7.47509 30.225 7.55509 25.8061 7.55509 21.0941C7.55509 18.1356 7.53009 15.4018 7.48259 12.898C5.76259 12.898 3.40259 13.0016 0.402588 13.2088L0.550088 9.00464H19.3001Z" fill="white"/>
<path d="M35.7225 34.3533H30.8925C31.05 32.0567 31.13 29.4796 31.13 26.6246C31.13 25.47 31.1975 24.0349 31.33 22.3219H31.055C30.7375 23.2947 29.2875 25.3841 26.7 28.5903C24.31 31.5489 23.115 33.4716 23.115 34.3533H19.3325C19.49 31.5236 19.57 28.4412 19.57 25.1062C19.57 21.3543 19.3625 18.33 18.9475 16.0334L24.1425 15.47C23.9975 17.9611 23.9225 20.4422 23.9225 22.9081C23.9225 24.2067 23.855 25.8743 23.7225 27.9106H23.9975C24.23 27.092 25.6125 25.0683 28.15 21.8368C30.54 18.7873 31.735 16.852 31.735 16.0359L35.705 15.4725C35.5575 17.9637 35.485 21.1774 35.485 25.1087C35.485 28.2214 35.565 31.3038 35.7225 34.3533Z" fill="white"/>
<path d="M56.4825 25.0482C56.4825 28.2923 55.5225 30.7809 53.6025 32.5141C51.6825 34.2473 49.3725 35.1139 46.6775 35.1139C43.4325 35.1139 41.17 34.0654 39.89 31.9709C38.61 29.8739 37.97 26.4833 37.97 21.799C37.97 19.3458 38.2075 17.2563 38.6825 15.5307C39.1575 13.8051 39.8925 12.3776 40.8875 11.2482C41.8825 10.1189 43.14 9.25226 44.665 8.64841C46.19 8.04457 48 7.63274 50.0975 7.41293C50.755 7.34724 51.4725 7.24871 52.2475 7.11228C53.0225 6.97584 53.9225 6.83688 54.945 6.69287L54.725 11.0537C54.4075 11.0916 53.81 11.1699 52.9325 11.2861C52.055 11.4023 50.95 11.5514 49.6225 11.7333C48.4875 11.89 47.4725 12.0946 46.5775 12.3473C45.68 12.5999 44.9175 12.9789 44.29 13.4867C43.6625 13.992 43.175 14.6692 42.8275 15.5105C42.48 16.3544 42.2825 17.4509 42.2325 18.8H42.415C43.805 17.0871 45.6825 16.2306 48.05 16.2306C50.5025 16.2306 52.52 16.9456 54.105 18.3731C55.69 19.798 56.4825 22.0239 56.4825 25.0482ZM51.745 25.6495C51.745 23.9618 51.3525 22.5696 50.565 21.4731C49.7775 20.3766 48.6475 19.8284 47.1725 19.8284C45.0875 19.8284 43.47 20.5939 42.325 22.125C42.3375 25.604 42.72 28.0396 43.4775 29.4368C44.2325 30.8314 45.3975 31.5288 46.9725 31.5288C48.425 31.5288 49.5825 30.9704 50.4475 29.8537C51.3125 28.7395 51.745 27.3372 51.745 25.6495Z" fill="white"/>
<path d="M74.5351 23.1204C74.5351 23.7823 74.4976 24.6464 74.4251 25.7101L62.6451 25.9248C62.8151 27.3927 63.4076 28.6105 64.4201 29.5858C65.4326 30.5585 66.7626 31.0461 68.4076 31.0461C70.2376 31.0461 72.1826 30.753 74.2426 30.1694L73.8776 33.9466C72.1951 34.5959 70.1101 34.9193 67.6201 34.9193C64.4726 34.9193 62.0626 33.9794 60.3851 32.0972C58.7076 30.2149 57.8701 27.9511 57.8701 25.3033C57.8701 22.5393 58.6651 20.1416 60.2576 18.1102C61.8501 16.0789 64.0601 15.0632 66.8901 15.0632C69.4751 15.0632 71.3951 15.8086 72.6526 17.3017C73.9051 18.7924 74.5351 20.7328 74.5351 23.1204ZM70.2551 22.9435C70.2551 19.9597 69.0601 18.4665 66.6701 18.4665C64.3901 18.4665 63.0351 20.0102 62.6101 23.1002L70.2551 22.9435Z" fill="white"/>
<path d="M91.25 15.8567L91.14 19.8082C89.3725 19.6137 87.615 19.5151 85.8725 19.5151C85.835 21.3443 85.8175 23.2468 85.8175 25.22C85.8175 28.5551 85.9025 31.5996 86.0725 34.351H81.1525C81.3225 31.741 81.4075 28.6991 81.4075 25.22C81.4075 23.3125 81.3775 21.41 81.315 19.5151C79.5475 19.5151 77.705 19.6137 75.79 19.8082L75.9175 15.8567H91.25Z" fill="white"/>
<path d="M107.108 30.2655L106.798 33.9846C105.688 34.6087 104.183 34.9194 102.28 34.9194C99.1326 34.9194 96.7151 33.9846 95.0276 32.115C93.3376 30.2453 92.4951 28.0018 92.4951 25.3792C92.4951 22.6531 93.3801 20.2756 95.1476 18.2443C96.9151 16.2129 99.3376 15.1973 102.41 15.1973C103.91 15.1973 105.245 15.3792 106.418 15.743L105.795 19.7147C104.673 19.222 103.418 18.9744 102.028 18.9744C100.553 18.9744 99.3876 19.5303 98.5326 20.6394C97.6776 21.7486 97.2526 23.1154 97.2526 24.7375C97.2526 26.5035 97.7576 27.9967 98.7701 29.2145C99.7826 30.4348 101.215 31.0437 103.07 31.0437C104.15 31.0437 105.498 30.7835 107.108 30.2655Z" fill="white"/>
<path d="M125.233 34.3533H120.33C120.233 34.1714 120.085 33.8202 119.89 33.3023C119.183 30.6923 118.455 28.9187 117.705 27.9763C116.955 27.0364 116.013 26.564 114.88 26.564C114.588 26.564 114.185 26.5766 113.673 26.6019C113.673 29.093 113.765 31.6777 113.948 34.3508H109.045C109.228 31.756 109.32 28.7899 109.32 25.4523C109.32 21.7004 109.1 18.5549 108.663 16.0106L113.913 15.4851C113.755 17.6402 113.675 20.2754 113.675 23.3906C114.2 23.4159 114.603 23.4285 114.883 23.4285C117.04 23.4285 118.62 21.2279 119.62 16.8292C119.693 16.5058 119.828 16.1799 120.023 15.8565H124.615C124.493 16.1546 124.28 16.708 123.975 17.5114C122.585 21.5741 121.023 23.9566 119.293 24.6564V24.851C120.45 25.2148 121.418 25.9728 122.193 27.1299C122.968 28.2846 123.713 29.9799 124.433 32.2108C124.648 32.9005 124.915 33.613 125.233 34.3533Z" fill="white"/>
<path d="M142.095 34.3331L137.778 34.4897C137.583 33.944 137.485 33.4513 137.485 33.0092H137.248C135.905 34.2295 134.095 34.8384 131.815 34.8384C130.29 34.8384 129.025 34.3862 128.02 33.4842C127.013 32.5822 126.51 31.3846 126.51 29.8914C126.51 27.9182 127.293 26.3038 128.86 25.043C130.428 23.7848 133.175 23.1153 137.1 23.0369C137.125 22.8045 137.138 22.5822 137.138 22.375C137.138 20.9728 136.82 20.048 136.188 19.6008C135.553 19.1536 134.388 18.9288 132.693 18.9288C130.85 18.9288 129.053 19.189 127.295 19.707L127.698 16.1243C129.355 15.5154 131.698 15.2097 134.723 15.2097C136.93 15.2097 138.635 15.7024 139.835 16.6903C141.035 17.6756 141.638 19.4038 141.638 21.8697C141.638 22.4154 141.615 23.4083 141.573 24.8485C141.53 26.2886 141.508 27.2487 141.508 27.7287C141.51 30.4195 141.705 32.6201 142.095 34.3331ZM137.213 30.283C137.14 28.5296 137.102 27.0188 137.102 25.7479C132.943 25.7479 130.865 26.8697 130.865 29.1158C130.865 30.6595 131.78 31.4326 133.61 31.4326C135.048 31.4326 136.248 31.0511 137.213 30.283Z" fill="white"/>
<path d="M160.295 34.3535H155.448C155.57 32.0165 155.63 29.6036 155.63 27.1099C154.863 27.0316 154.118 26.9937 153.398 26.9937C152.093 26.9937 151.158 27.3626 150.59 28.1029C150.023 28.8431 149.228 30.925 148.203 34.3535H143.593C144.58 31.2004 145.413 29.0554 146.09 27.9184C146.768 26.784 147.575 26.1044 148.515 25.8846V25.5915C145.858 24.9295 144.528 23.3732 144.528 20.9199C144.528 19.116 145.125 17.7769 146.32 16.9002C147.515 16.0235 149.083 15.5864 151.023 15.5864C152.595 15.5864 154.615 15.6647 157.078 15.8188L160.298 15.45C160.14 18.358 160.06 21.5692 160.06 25.0862C160.055 28.9922 160.135 32.0822 160.295 34.3535ZM155.63 23.8785C155.63 22.0088 155.593 20.3742 155.52 18.9719C154.178 18.8557 152.868 18.7976 151.588 18.7976C149.855 18.7976 148.99 19.596 148.99 21.1928C148.99 23.0346 150.278 23.9568 152.85 23.9568C153.533 23.9568 154.458 23.9315 155.63 23.8785Z" fill="white"/>
<path d="M54.2801 47.7542L54.4801 47.4991C54.7851 47.1024 55.0401 46.7436 55.2451 46.4228C55.4501 46.1019 55.7076 45.6698 56.0176 45.1292C55.9526 45.0635 55.9201 44.9953 55.9201 44.927C55.9201 44.7704 55.9651 44.5759 56.0526 44.3459C56.1401 44.116 56.2351 43.9543 56.3326 43.8634C56.3976 43.7851 56.5601 43.7522 56.8226 43.7648L57.2951 43.7901C57.4626 43.8255 57.5476 43.9089 57.5476 44.0453C57.5476 44.2424 57.3701 44.5809 57.0176 45.0635C56.9926 45.0989 56.9401 45.1746 56.8626 45.2909C57.1201 45.6092 57.3026 45.8821 57.4051 46.1095C57.5076 46.3369 57.5601 46.5769 57.5601 46.8245C57.5601 46.9458 57.5451 47.11 57.5176 47.3172C57.4901 47.5243 57.4126 47.8225 57.2876 48.2115C57.1626 48.6006 56.9976 48.9544 56.7901 49.2727C57.0101 49.2727 57.2476 49.2045 57.5001 49.0706C57.7551 48.9367 58.1651 48.6234 58.7326 48.1358C58.8176 48.0574 58.9276 47.9665 59.0601 47.8654C59.1926 47.7643 59.2751 47.6961 59.3076 47.6658V48.775L59.1076 48.9392C58.1601 49.7047 57.4101 50.0888 56.8601 50.0888C56.6876 50.0888 56.4476 50.0256 56.1426 49.8993C55.9826 50.0029 55.8251 50.0736 55.6651 50.1115C55.5051 50.1494 55.2851 50.1671 55.0051 50.1671C54.8076 50.1671 54.6726 50.1393 54.5976 50.0812C54.5251 50.0256 54.4876 49.9195 54.4876 49.7679C54.4876 49.447 54.5401 49.1944 54.6501 49.0175C54.6926 48.9569 54.7526 48.9266 54.8301 48.9266C54.9426 48.9266 55.1226 48.9493 55.3726 48.9922C55.5026 49.0175 55.6076 49.0327 55.6901 49.0327C55.7976 49.0327 55.9226 48.8937 56.0626 48.6158C56.2026 48.3379 56.3201 48.0221 56.4151 47.6734C56.5101 47.3247 56.5576 47.0418 56.5576 46.827C56.5576 46.496 56.4876 46.2232 56.3451 46.0109C56.3051 46.0716 56.2476 46.1651 56.1701 46.2914C55.7226 47.0089 55.3576 47.5521 55.0751 47.9159C54.7926 48.2823 54.5276 48.5855 54.2776 48.8306V47.7542H54.2801Z" fill="white"/>
<path d="M62.4826 47.6708V48.7799C62.4526 48.8103 62.3726 48.8785 62.2426 48.9821C61.7301 49.4141 61.2926 49.7249 60.9276 49.9194C60.5626 50.114 60.2301 50.21 59.9301 50.21C59.7751 50.21 59.6451 50.1721 59.5426 50.0937C59.4476 50.0104 59.3726 49.8158 59.3126 49.5101C59.2551 49.2044 59.2251 48.8532 59.2251 48.4616C59.2251 47.4965 59.4976 46.3191 60.0451 44.9295H61.1301L61.0001 45.3337C60.7276 46.1599 60.5401 46.8092 60.4326 47.2767C60.3251 47.7441 60.2701 48.166 60.2701 48.5399C60.2701 48.7698 60.2876 48.9341 60.3251 49.0301C60.3626 49.1261 60.4226 49.1741 60.5101 49.1741C60.6101 49.1741 60.7376 49.1286 60.8976 49.0326C61.0576 48.9391 61.2501 48.7926 61.4751 48.5955C61.7001 48.3984 61.8701 48.2468 61.9801 48.1458C62.0926 48.0397 62.2601 47.883 62.4826 47.6708ZM61.2701 42.0947C61.6926 42.0947 61.9026 42.2211 61.9026 42.4737C61.9026 42.6127 61.8676 42.787 61.8001 42.9916C61.7301 43.1988 61.6551 43.3504 61.5751 43.4464C61.4751 43.5475 61.3001 43.5955 61.0451 43.5955C60.8676 43.5955 60.7426 43.5702 60.6676 43.5172C60.5926 43.4641 60.5551 43.3782 60.5551 43.2569C60.5551 43.2165 60.5601 43.1609 60.5701 43.0851C60.5801 43.0093 60.6026 42.9133 60.6351 42.7946C60.6676 42.6758 60.7076 42.5672 60.7576 42.4687C60.8076 42.3676 60.8776 42.2817 60.9676 42.2084C61.0551 42.1326 61.1576 42.0947 61.2701 42.0947Z" fill="white"/>
<path d="M63.2076 44.927H64.305C64.095 45.5005 63.9126 46.0639 63.7626 46.6173C64.4376 45.973 64.9576 45.5308 65.3226 45.2883C65.6876 45.0457 66.0126 44.927 66.3001 44.927C66.5251 44.927 66.7125 45.0432 66.865 45.2731C67.0175 45.5031 67.0951 45.786 67.0951 46.1221C67.0951 46.4581 66.9775 46.9684 66.74 47.6557C66.545 48.2267 66.45 48.636 66.45 48.8886C66.45 49.1362 66.52 49.26 66.6625 49.26C66.7225 49.26 66.8501 49.2044 67.0426 49.0933C67.2351 48.9821 67.49 48.7977 67.805 48.5374C68.12 48.2797 68.4126 47.9866 68.6826 47.6658V48.7749L68.4176 49.0175C67.9276 49.4571 67.525 49.7628 67.21 49.9346C66.895 50.1064 66.5875 50.1923 66.2875 50.1923C66.015 50.1923 65.7976 50.0811 65.6351 49.8588C65.4726 49.6365 65.39 49.3383 65.39 48.9644C65.39 48.6284 65.5076 48.1205 65.7451 47.4359C65.9226 46.9103 66.0101 46.5541 66.0101 46.3722C66.0101 46.2509 65.9926 46.1524 65.9551 46.0791C65.9176 46.0058 65.8726 45.9679 65.8151 45.9679C65.6651 45.9679 65.4325 46.0968 65.1175 46.3545C64.8025 46.6122 64.32 47.0695 63.67 47.7264L63.535 47.8578C63.51 48.1155 63.4976 48.4313 63.4976 48.8052C63.4976 48.9619 63.505 49.3055 63.5225 49.8361L63.535 50.1418H62.495C62.4825 49.9927 62.4676 49.7451 62.4501 49.399L62.425 48.7016V48.2696C62.425 47.4738 62.6851 46.3595 63.2076 44.927Z" fill="white"/>
<path d="M73.51 47.6709V48.7801C72.985 49.2854 72.485 49.6492 72.015 49.8741C71.5425 50.0989 71.04 50.2101 70.5075 50.2101C70.19 50.2101 69.91 50.1621 69.6675 50.0661C69.4275 49.9701 69.24 49.8538 69.11 49.7174C68.9775 49.581 68.8725 49.4193 68.7925 49.2348C68.7125 49.0504 68.66 48.8862 68.6375 48.7447C68.6125 48.6032 68.6025 48.4617 68.6025 48.3177C68.6025 47.7518 68.735 47.2035 68.9975 46.6755C69.26 46.1474 69.605 45.7204 70.035 45.3996C70.4625 45.0787 70.9075 44.917 71.37 44.917C71.7275 44.917 72.0075 45.0105 72.2125 45.1949C72.4175 45.3794 72.52 45.6345 72.52 45.963C72.52 46.2535 72.4525 46.534 72.32 46.8018C72.1875 47.0696 72.0075 47.2793 71.785 47.4309C71.4925 47.3096 71.265 47.1555 71.1075 46.9685C71.3225 46.6628 71.4575 46.4632 71.5075 46.3672C71.56 46.2712 71.585 46.1626 71.585 46.0413C71.585 45.819 71.4675 45.7078 71.23 45.7078C71.005 45.7078 70.7725 45.8468 70.53 46.1247C70.2875 46.4026 70.0875 46.7437 69.93 47.1454C69.7725 47.5471 69.695 47.9236 69.695 48.2722C69.695 48.6032 69.7875 48.8685 69.975 49.0681C70.1625 49.2677 70.4075 49.3688 70.715 49.3688C71.545 49.3662 72.48 48.8003 73.51 47.6709Z" fill="white"/>
<path d="M78.4702 47.6707V48.7672C77.1602 49.7374 75.8952 50.2225 74.6727 50.2225C74.4402 50.2225 74.2377 50.1669 74.0652 50.0557C73.8927 49.9446 73.7627 49.7955 73.6702 49.6085C73.5802 49.4216 73.5152 49.2245 73.4727 49.0199C73.4302 48.8152 73.4102 48.5979 73.4102 48.368C73.4102 47.749 73.5402 47.1603 73.7977 46.602C74.0552 46.0436 74.4002 45.5939 74.8302 45.2528C75.2602 44.9142 75.7127 44.7424 76.1877 44.7424C76.5152 44.7424 76.7702 44.8283 76.9502 45.0001C77.1302 45.1719 77.2202 45.4145 77.2202 45.7278C77.2202 45.9147 77.1877 46.0941 77.1227 46.2659C77.0577 46.4377 76.9802 46.5893 76.8877 46.7232C76.7952 46.8571 76.6702 46.986 76.5152 47.1149C76.3602 47.2437 76.2202 47.3498 76.0927 47.4357C75.9652 47.5216 75.8077 47.6101 75.6177 47.7035C75.4277 47.797 75.2802 47.8678 75.1727 47.9158C75.0652 47.9638 74.9277 48.0194 74.7602 48.085L74.4952 48.1886C74.5002 48.2745 74.5002 48.368 74.4952 48.4691C74.4902 48.5701 74.5026 48.6737 74.5276 48.7798C74.5526 48.886 74.5877 48.9845 74.6277 49.0704C74.6677 49.1588 74.7352 49.227 74.8277 49.2826C74.9202 49.3382 75.0302 49.3635 75.1602 49.3635C75.6602 49.3635 76.1677 49.2321 76.6802 48.9693C77.2002 48.7091 77.7952 48.2745 78.4702 47.6707ZM74.6202 47.3372C75.1627 47.1452 75.5902 46.9178 75.9052 46.6525C76.2202 46.3872 76.3777 46.1219 76.3777 45.8566C76.3777 45.6621 76.2802 45.5636 76.0877 45.5636C75.8002 45.5636 75.5102 45.7404 75.2202 46.0916C74.9277 46.4428 74.7277 46.8571 74.6202 47.3372Z" fill="white"/>
<path d="M84.0652 44.4774L83.4127 44.0454C83.6377 43.8812 83.8227 43.7397 83.9727 43.6209C84.1202 43.5022 84.3202 43.3304 84.5702 43.103C84.8202 42.8756 85.0802 42.6027 85.3552 42.2844C85.6277 41.9661 85.9127 41.6048 86.2102 41.2005C86.4977 41.1929 86.7427 41.2131 86.9477 41.2662C86.8052 41.7058 86.6427 42.2061 86.4627 42.7644C86.2827 43.3228 86.1577 43.7144 86.0877 43.9368C86.0177 44.1591 85.9377 44.4218 85.8452 44.7301C85.7527 45.0383 85.6652 45.344 85.5827 45.6548L84.3427 50.2101H83.1802L83.9427 47.671L84.3052 46.3925C84.4827 45.7533 84.7677 44.8311 85.1652 43.6235C84.7177 44.01 84.3527 44.2955 84.0652 44.4774Z" fill="white"/>
<path d="M92.1051 46.0387C91.7526 46.2964 91.4601 46.4733 91.2301 46.5744C91.0001 46.6754 90.7626 46.7234 90.5151 46.7234C90.0626 46.7234 89.6926 46.5516 89.4001 46.2055C89.1101 45.8594 88.9651 45.4172 88.9651 44.8765C88.9651 44.255 89.1076 43.6587 89.3926 43.0953C89.6776 42.5294 90.0526 42.0746 90.5201 41.731C90.9876 41.3874 91.4801 41.2156 91.9951 41.2156C92.5551 41.2156 93.0001 41.4051 93.3301 41.784C93.6601 42.163 93.8251 42.6734 93.8251 43.3177C93.8251 43.7699 93.7576 44.2575 93.6226 44.783C93.4876 45.3086 93.3026 45.824 93.0676 46.3293C92.8326 46.8371 92.5476 47.3247 92.2076 47.7947C91.8701 48.2646 91.5101 48.679 91.1301 49.0352C90.7501 49.3915 90.3301 49.677 89.8726 49.8892C89.4151 50.1014 88.9651 50.2101 88.5151 50.2101C88.3951 50.2101 88.3151 50.1772 88.2801 50.109C88.2426 50.0408 88.2251 49.8892 88.2251 49.6492C88.2251 49.5885 88.2426 49.5456 88.2776 49.5228C88.3126 49.5001 88.3776 49.4799 88.4776 49.4672C88.8301 49.4243 89.2001 49.298 89.5876 49.0883C89.9526 48.8937 90.3126 48.6082 90.6626 48.2318C91.0126 47.8578 91.3001 47.489 91.5251 47.1277C91.7476 46.7664 91.9426 46.4026 92.1051 46.0387ZM91.9451 41.9786C91.6601 41.9786 91.3926 42.0923 91.1376 42.3171C90.8826 42.5445 90.6776 42.8174 90.5176 43.1408C90.3576 43.4617 90.2326 43.7876 90.1401 44.1135C90.0476 44.4394 90.0001 44.7174 90.0001 44.9498C90.0001 45.2378 90.0701 45.4627 90.2076 45.6244C90.3451 45.7886 90.5376 45.8695 90.7826 45.8695C90.9026 45.8695 91.0426 45.8492 91.2001 45.8063C91.3576 45.7659 91.5351 45.6825 91.7351 45.5612C91.9351 45.4399 92.1176 45.2858 92.2776 45.0963C92.4401 44.9094 92.5751 44.6517 92.6876 44.3257C92.8001 43.9998 92.8551 43.6284 92.8551 43.2166C92.8551 42.8477 92.7701 42.5471 92.6026 42.3197C92.4351 42.0923 92.2151 41.9786 91.9451 41.9786Z" fill="white"/>
<path d="M98.3326 46.0387C97.9801 46.2964 97.6876 46.4733 97.4576 46.5744C97.2276 46.6754 96.9901 46.7234 96.7426 46.7234C96.2901 46.7234 95.9201 46.5516 95.6276 46.2055C95.3376 45.8594 95.1926 45.4172 95.1926 44.8765C95.1926 44.255 95.3351 43.6587 95.6201 43.0953C95.9051 42.5294 96.2801 42.0746 96.7476 41.731C97.2151 41.3874 97.7076 41.2156 98.2226 41.2156C98.7826 41.2156 99.2276 41.4051 99.5576 41.784C99.8876 42.163 100.053 42.6734 100.053 43.3177C100.053 43.7699 99.9851 44.2575 99.8501 44.783C99.7151 45.3086 99.5301 45.824 99.2951 46.3293C99.0601 46.8371 98.7751 47.3247 98.4351 47.7947C98.0976 48.2646 97.7376 48.679 97.3576 49.0352C96.9776 49.3915 96.5576 49.677 96.1001 49.8892C95.6426 50.1014 95.1926 50.2101 94.7426 50.2101C94.6226 50.2101 94.5426 50.1772 94.5076 50.109C94.4701 50.0408 94.4526 49.8892 94.4526 49.6492C94.4526 49.5885 94.4701 49.5456 94.5051 49.5228C94.5401 49.5001 94.6051 49.4799 94.7051 49.4672C95.0576 49.4243 95.4276 49.298 95.8151 49.0883C96.1801 48.8937 96.5401 48.6082 96.8901 48.2318C97.2401 47.8578 97.5276 47.489 97.7526 47.1277C97.9751 46.7664 98.1701 46.4026 98.3326 46.0387ZM98.1701 41.9786C97.8851 41.9786 97.6176 42.0923 97.3626 42.3171C97.1076 42.5445 96.9026 42.8174 96.7426 43.1408C96.5826 43.4617 96.4576 43.7876 96.3651 44.1135C96.2726 44.4394 96.2251 44.7174 96.2251 44.9498C96.2251 45.2378 96.2951 45.4627 96.4326 45.6244C96.5701 45.7886 96.7626 45.8695 97.0076 45.8695C97.1276 45.8695 97.2676 45.8492 97.4251 45.8063C97.5826 45.7659 97.7601 45.6825 97.9601 45.5612C98.1601 45.4399 98.3426 45.2858 98.5026 45.0963C98.6651 44.9094 98.8001 44.6517 98.9126 44.3257C99.0251 43.9998 99.0801 43.6284 99.0801 43.2166C99.0801 42.8477 98.9951 42.5471 98.8276 42.3197C98.6626 42.0923 98.4426 41.9786 98.1701 41.9786Z" fill="white"/>
<path d="M102.64 45.3059C102.98 45.071 103.263 44.9093 103.488 44.8234C103.713 44.7375 103.948 44.692 104.198 44.692C104.628 44.692 104.99 44.8663 105.283 45.215C105.575 45.5636 105.723 45.9982 105.723 46.5212C105.723 46.8395 105.675 47.168 105.58 47.5091C105.485 47.8502 105.348 48.1811 105.163 48.502C104.98 48.8229 104.768 49.1084 104.528 49.3636C104.285 49.6187 104.008 49.8234 103.69 49.9775C103.373 50.1316 103.045 50.2099 102.705 50.2099C102.138 50.2099 101.688 50.0179 101.358 49.6314C101.028 49.2473 100.863 48.7218 100.863 48.0624C100.863 47.2008 101.093 46.2584 101.553 45.2327C102.013 44.2069 102.603 43.3277 103.323 42.5924C103.733 42.1655 104.2 41.8244 104.73 41.5641C105.26 41.3064 105.745 41.175 106.19 41.175C106.285 41.175 106.345 41.1978 106.375 41.2433C106.403 41.2887 106.418 41.3873 106.418 41.5338C106.418 41.698 106.403 41.8092 106.373 41.8623C106.343 41.9179 106.278 41.9507 106.18 41.9633C105.815 41.9987 105.435 42.1276 105.043 42.3549C104.65 42.5823 104.293 42.8779 103.97 43.2418C103.733 43.507 103.52 43.79 103.328 44.0881C103.138 44.3863 102.908 44.7931 102.64 45.3059ZM103.92 45.5485C103.748 45.5485 103.568 45.5813 103.38 45.647C103.193 45.7127 103.008 45.8163 102.823 45.9578C102.638 46.0993 102.473 46.266 102.325 46.4606C102.178 46.6551 102.06 46.8926 101.97 47.1756C101.88 47.4586 101.835 47.7643 101.835 48.0902C101.835 48.4919 101.923 48.8128 102.098 49.0604C102.273 49.3054 102.5 49.4292 102.785 49.4292C103.06 49.4292 103.323 49.3181 103.573 49.0957C103.823 48.8734 104.025 48.6031 104.183 48.2822C104.34 47.9613 104.463 47.6405 104.555 47.3171C104.645 46.9937 104.69 46.7157 104.69 46.4833C104.69 46.1928 104.623 45.9628 104.488 45.7986C104.35 45.6319 104.16 45.5485 103.92 45.5485Z" fill="white"/>
</g>
<defs>
<clipPath id="clip0_1_1409">
<rect width="160" height="50.2225" fill="white"/>
</clipPath>
</defs>
</svg>
