<svg width="40" height="40" viewBox="0 0 40 40" fill="none" xmlns="http://www.w3.org/2000/svg">
<g clip-path="url(#clip0_1_1119)">
<path d="M21.8196 18.5137L20.4965 14.6031L19.2518 18.5137C19.1734 18.7391 19.0165 18.8175 18.7813 18.8175H14.5865L17.9972 21.2776C18.154 21.4344 18.2325 21.5814 18.154 21.8166L16.8309 25.7272L20.2417 23.277C20.3201 23.1986 20.3985 23.1986 20.5553 23.1986C20.6337 23.1986 20.7905 23.1986 20.8689 23.277L24.2797 25.7272L22.8781 21.8166C22.7997 21.5912 22.8781 21.4344 23.0349 21.2776L26.4457 18.8175H22.2509C22.045 18.8175 21.898 18.6705 21.8196 18.5137Z" fill="#EF4130"/>
<path d="M20.4965 8.00702C13.822 8.00702 8.39227 13.378 8.39227 19.974C8.39227 26.5701 13.822 31.941 20.4965 31.941C27.171 31.941 32.6007 26.5701 32.6007 19.974C32.6007 13.3682 27.171 8.00702 20.4965 8.00702ZM28.2589 18.7391L23.917 21.8068L25.544 26.7955C25.6224 27.021 25.544 27.1778 25.3872 27.3346C25.3088 27.413 25.2304 27.413 25.0736 27.413C24.9952 27.413 24.8383 27.413 24.7599 27.3346L20.4867 24.2669L16.2233 27.3346C16.0665 27.4914 15.8312 27.4914 15.6842 27.3346C15.5274 27.1778 15.449 27.0308 15.5274 26.7955L17.1642 21.8166L12.8909 18.7489C12.7341 18.5921 12.6557 18.4451 12.7341 18.2099C12.8125 17.9844 12.9693 17.906 13.2046 17.906H18.4775L20.1045 12.9173C20.1829 12.6821 20.3397 12.6135 20.5651 12.6135C20.8003 12.6135 20.9571 12.7703 21.0356 12.9173L22.6625 17.906H27.9453C28.1805 17.906 28.3373 18.0628 28.4157 18.2099C28.4941 18.3569 28.4157 18.5921 28.2589 18.7391Z" fill="#EF4130"/>
<path d="M39.3536 24.8059L38.0305 20.8953C37.8737 20.2779 37.8737 19.6702 38.0305 19.1312L39.3536 15.2206C39.5888 14.3777 39.3536 13.5348 38.6577 12.9957L35.247 10.5357C34.7079 10.1534 34.3943 9.6928 34.1591 9.07533L32.836 5.16474C32.6007 4.32185 31.8265 3.7828 30.9738 3.7828H26.7789C26.1615 3.7828 25.5342 3.55737 25.0736 3.24374L21.6628 0.793494C21.3492 0.568071 20.8885 0.411255 20.4965 0.411255C20.1045 0.411255 19.6438 0.568071 19.3302 0.793494L15.9194 3.24374C15.3804 3.62598 14.8315 3.7828 14.2141 3.7828H10.0192C9.16655 3.7828 8.39228 4.32185 8.15705 5.16474L6.83392 9.07533C6.6771 9.6928 6.29486 10.1534 5.74601 10.5357L2.33526 12.9957C1.63939 13.5348 1.32576 14.3777 1.63939 15.2206L2.96253 19.1312C3.11934 19.7486 3.11934 20.3563 2.96253 20.8953L1.63939 24.8059C1.40417 25.6488 1.63939 26.4917 2.33526 27.0308L5.74601 29.4908C6.28506 29.873 6.59869 30.3337 6.83392 30.9512L8.15705 34.8618C8.39228 35.7046 9.16655 36.2437 10.0192 36.2437H14.2141C14.8315 36.2437 15.4588 36.4691 15.9194 36.7827L19.3302 39.2428C19.6438 39.4682 20.1045 39.625 20.4965 39.625C20.8885 39.625 21.3492 39.4682 21.6628 39.2428L25.0736 36.7827C25.6126 36.4005 26.1615 36.2437 26.7789 36.2437H30.9738C31.8265 36.2437 32.6007 35.7046 32.836 34.8618L34.1591 30.9512C34.3159 30.3337 34.6981 29.873 35.247 29.4908L38.6577 27.0308C39.3536 26.4917 39.6673 25.6488 39.3536 24.8059ZM20.4965 32.9408C13.283 32.9408 7.38277 27.1092 7.38277 19.974C7.38277 12.8389 13.283 7.00732 20.4965 7.00732C27.71 7.00732 33.6102 12.8389 33.6102 19.974C33.6102 27.1092 27.71 32.9408 20.4965 32.9408Z" fill="#EF4130"/>
</g>
<defs>
<clipPath id="clip0_1_1119">
<path d="M0.502502 0.303467H39.7065V19.9055C39.7065 30.7313 30.9304 39.5074 20.1045 39.5074C9.27861 39.5074 0.502502 30.7313 0.502502 19.9055V0.303467Z" fill="white"/>
</clipPath>
</defs>
</svg>
