<svg width="41" height="40" viewBox="0 0 41 40" fill="none" xmlns="http://www.w3.org/2000/svg">
<path fill-rule="evenodd" clip-rule="evenodd" d="M39.06 19.27C39.06 19.18 39.06 19.18 38.97 19.1C38.97 19.01 38.97 19.01 38.89 18.93C38.89 18.84 38.8 18.76 38.72 18.76C38.72 18.68 38.63 18.68 38.55 18.68C38.47 18.59 38.47 18.59 38.47 18.51C38.3 18.51 36.18 17.74 34.14 17.57L33.88 18.17L34.56 23.86L33.71 25.39L32.86 23.86L33.54 18.17L33.29 17.57C31.25 17.74 29.13 18.51 29.04 18.51C28.95 18.59 28.95 18.59 28.87 18.68C28.78 18.68 28.7 18.68 28.7 18.76C28.61 18.76 28.53 18.84 28.53 18.93C28.53 19.02 28.44 19.02 28.44 19.1C28.36 19.18 28.36 19.18 28.36 19.27C28.36 19.36 28.27 19.44 28.27 19.44L27.42 27.25C27.34 27.84 27.85 28.36 28.36 28.44C28.44 28.44 28.53 28.44 28.53 28.44C29.04 28.44 29.55 28.01 29.63 27.5L30.39 20.37C30.48 20.28 30.56 20.28 30.65 20.28V27.67L29.8 38.45C29.72 39.13 30.31 39.81 30.99 39.81H31.07C31.75 39.81 32.35 39.3 32.35 38.62L33.2 28.94C33.37 28.94 33.54 29.02 33.71 29.02C33.88 29.02 34.05 28.94 34.22 28.94L34.99 38.62C35.07 39.3 35.67 39.81 36.35 39.81H36.44C37.12 39.81 37.71 39.13 37.63 38.45L36.78 27.67V20.28C36.86 20.28 36.95 20.28 37.03 20.37L37.8 27.5C37.88 28.01 38.39 28.44 38.9 28.44C38.98 28.44 38.98 28.44 39.07 28.44C39.58 28.35 40.09 27.84 40 27.25L39.15 19.44C39.14 19.43 39.14 19.35 39.06 19.27Z" fill="#EF4130"/>
<path fill-rule="evenodd" clip-rule="evenodd" d="M28.87 6.62L33.03 8.83L30.23 0L22.5 3.56L26.49 5.34C26.4 5.51 26.32 5.68 26.23 5.85C26.06 6.11 25.89 6.45 25.72 6.79C25.55 6.96 25.46 7.13 25.38 7.3C25.29 7.47 25.12 7.64 25.04 7.81C24.95 7.98 24.87 8.15 24.7 8.4C24.61 8.57 24.44 8.74 24.27 8.91C24.02 9.25 23.76 9.67 23.42 10.1C23.16 10.44 22.83 10.86 22.48 11.2C22.14 11.54 21.8 11.96 21.46 12.3C21.04 12.64 20.61 13.07 20.27 13.41C20.01 13.58 19.84 13.75 19.59 13.92C19.42 14.09 19.16 14.26 18.99 14.43C18.57 14.77 18.14 15.11 17.72 15.37C17.46 15.54 17.21 15.71 17.04 15.88L16.28 16.3C15.34 16.89 14.41 17.4 13.48 17.83C12.54 18.25 11.53 18.68 10.59 19.02C9.66 19.36 8.72 19.7 7.87 19.87C6.94 20.12 6.09 20.29 5.32 20.46C4.47 20.63 3.79 20.71 3.11 20.8C2.52 20.89 1.92 20.97 1.5 20.97C0.6 21.05 0 21.05 0 21.05V21.22C0 21.22 2.21 21.39 5.43 21.05C6.2 20.96 7.05 20.88 7.98 20.8C8.91 20.63 9.85 20.38 10.87 20.12C11.89 19.87 12.82 19.53 13.93 19.19C14.95 18.77 15.97 18.34 16.99 17.83L17.76 17.49C17.93 17.32 18.18 17.15 18.44 17.07C18.95 16.82 19.46 16.48 19.88 16.14C20.14 16.05 20.39 15.89 20.64 15.72C20.81 15.55 21.07 15.38 21.32 15.21C21.75 14.87 22.17 14.53 22.6 14.19C23.02 13.77 23.45 13.43 23.88 13.09C24.22 12.67 24.64 12.32 24.98 11.98C25.32 11.56 25.66 11.13 26 10.79C26.17 10.62 26.34 10.37 26.51 10.2C26.59 10.03 26.76 9.86 26.93 9.69C27.01 9.44 27.19 9.27 27.27 9.1C27.44 8.93 27.61 8.76 27.7 8.59C27.95 8.17 28.12 7.91 28.38 7.57C28.53 7.21 28.7 6.87 28.87 6.62Z" fill="#EF4130"/>
<path fill-rule="evenodd" clip-rule="evenodd" d="M10.78 39.64H16.22V23.93H10.78V39.64Z" fill="#EF4130"/>
<path fill-rule="evenodd" clip-rule="evenodd" d="M20.21 39.64H25.56V19.1H20.21V39.64Z" fill="#EF4130"/>
<path fill-rule="evenodd" clip-rule="evenodd" d="M1.53003 39.64H6.96003V28.18H1.53003V39.64Z" fill="#EF4130"/>
<path fill-rule="evenodd" clip-rule="evenodd" d="M33.71 17.4C35.24 17.4 36.43 15.62 36.43 14.17C36.43 12.64 35.24 11.37 33.71 11.37C32.18 11.37 31 12.65 31 14.17C30.99 15.61 32.18 17.4 33.71 17.4Z" fill="#EF4130"/>
</svg>
