<svg width="80" height="80" viewBox="0 0 80 80" fill="none" xmlns="http://www.w3.org/2000/svg">
<g clip-path="url(#clip0_1_950)">
<path d="M40.0001 72.8881C58.1681 72.8881 72.8881 58.1601 72.8881 40.0001C72.8881 21.8401 58.1681 7.11206 40.0001 7.11206C21.8321 7.11206 7.11206 21.8321 7.11206 40.0001C7.11206 58.1681 21.8321 72.8881 40.0001 72.8881Z" fill="#EF4130"/>
<path d="M40 79.9999C36.768 79.9999 33.56 79.6159 30.448 78.8479L31.024 76.4799C34.16 77.2479 37.416 77.5919 40.664 77.5519L40.704 79.9839C40.472 79.9999 40.24 79.9999 40 79.9999ZM50.928 78.4879L50.264 76.1439C53.384 75.2639 56.376 73.9679 59.168 72.3119L60.416 74.4079C57.44 76.1759 54.248 77.5519 50.928 78.4879ZM20.824 75.1119C17.8 73.4559 14.992 71.4079 12.48 69.0319L14.152 67.2639C16.512 69.5039 19.144 71.4239 21.992 72.9759L20.824 75.1119ZM68.536 68.0319L66.8 66.3279C69.08 64.0079 71.048 61.4079 72.656 58.5919L74.768 59.7999C73.056 62.7999 70.96 65.5679 68.536 68.0319ZM5.96 61.0159C4.136 58.0719 2.712 54.9039 1.712 51.5999L4.04 50.8959C4.976 53.9919 6.32 56.9679 8.032 59.7359L5.96 61.0159ZM78.68 50.2399L76.328 49.6159C77.152 46.4959 77.568 43.2639 77.568 39.9999C77.568 39.1119 77.536 38.2159 77.472 37.3359L79.904 37.1679C79.968 38.1039 80 39.0559 80 39.9999C80 43.4719 79.552 46.9119 78.68 50.2399ZM0.024 41.4159C0.008 40.9439 0 40.4719 0 39.9999C0 37.0079 0.328 34.0319 0.984 31.1359L3.36 31.6799C2.744 34.3919 2.432 37.1919 2.432 39.9999C2.432 40.4479 2.44 40.8879 2.456 41.3359L0.024 41.4159ZM75.552 27.8319C74.504 24.7679 73.056 21.8479 71.248 19.1439L73.272 17.7919C75.192 20.6719 76.736 23.7839 77.856 27.0399L75.552 27.8319ZM6.712 22.5759L4.552 21.4479C6.152 18.3919 8.152 15.5519 10.488 12.9999L12.288 14.6479C10.088 17.0399 8.216 19.7119 6.712 22.5759ZM64.864 11.8399C62.432 9.68791 59.728 7.85591 56.832 6.40791L57.928 4.23191C61.016 5.78391 63.888 7.72791 66.48 10.0159L64.864 11.8399ZM19.704 8.38391L18.384 6.33591C21.296 4.46391 24.432 2.97591 27.72 1.91991L28.464 4.23991C25.384 5.23191 22.432 6.63191 19.704 8.38391ZM47.672 3.21591C44.52 2.56791 41.232 2.31991 38 2.48791L37.872 0.0559076C41.312 -0.120092 44.808 0.135908 48.168 0.831908L47.672 3.21591Z" fill="#EF4130"/>
<mask id="mask0_1_950" style="mask-type:luminance" maskUnits="userSpaceOnUse" x="19" y="20" width="42" height="40">
<path d="M60.392 20.8H19.6V59.192H60.392V20.8Z" fill="white"/>
</mask>
<g mask="url(#mask0_1_950)">
<path d="M39.9999 51.768C37.7439 51.768 35.9119 50.032 35.9119 47.904C35.9119 47.496 36.2399 47.168 36.6479 47.168C37.0559 47.168 37.3839 47.496 37.3839 47.904C37.3839 49.216 38.5519 50.288 39.9919 50.288C41.4319 50.288 42.5999 49.216 42.5999 47.904C42.5999 46.592 41.4319 45.52 39.9919 45.52C37.7359 45.52 35.9039 43.784 35.9039 41.656C35.9039 39.528 37.7359 37.792 39.9919 37.792C42.2479 37.792 44.0799 39.528 44.0799 41.656C44.0799 42.064 43.7519 42.392 43.3439 42.392C42.9359 42.392 42.6079 42.064 42.6079 41.656C42.6079 40.344 41.4399 39.272 39.9999 39.272C38.5599 39.272 37.3919 40.344 37.3919 41.656C37.3919 42.976 38.5599 44.04 39.9999 44.04C42.2559 44.04 44.0879 45.776 44.0879 47.904C44.0879 50.04 42.2559 51.768 39.9999 51.768Z" fill="white"/>
</g>
<mask id="mask1_1_950" style="mask-type:luminance" maskUnits="userSpaceOnUse" x="19" y="20" width="42" height="40">
<path d="M60.392 20.8H19.6V59.192H60.392V20.8Z" fill="white"/>
</mask>
<g mask="url(#mask1_1_950)">
<path d="M40 53.0321C39.592 53.0321 39.264 52.7041 39.264 52.2961V37.2721C39.264 36.8641 39.592 36.5361 40 36.5361C40.408 36.5361 40.736 36.8641 40.736 37.2721V52.2961C40.736 52.7041 40.408 53.0321 40 53.0321Z" fill="white"/>
</g>
<mask id="mask2_1_950" style="mask-type:luminance" maskUnits="userSpaceOnUse" x="19" y="20" width="42" height="40">
<path d="M60.392 20.8H19.6V59.192H60.392V20.8Z" fill="white"/>
</mask>
<g mask="url(#mask2_1_950)">
<path d="M59.656 39.4479C59.248 39.4479 58.92 39.1199 58.92 38.7119V36.8639C58.92 36.4559 59.248 36.1279 59.656 36.1279C60.064 36.1279 60.392 36.4559 60.392 36.8639V38.7119C60.4 39.1199 60.064 39.4479 59.656 39.4479Z" fill="white"/>
</g>
<mask id="mask3_1_950" style="mask-type:luminance" maskUnits="userSpaceOnUse" x="19" y="20" width="42" height="40">
<path d="M60.392 20.8H19.6V59.192H60.392V20.8Z" fill="white"/>
</mask>
<g mask="url(#mask3_1_950)">
<path d="M59.656 47.2719C59.248 47.2719 58.92 46.9439 58.92 46.5359V42.6239C58.92 42.2159 59.248 41.8879 59.656 41.8879C60.064 41.8879 60.392 42.2159 60.392 42.6239V46.5359C60.4 46.9439 60.064 47.2719 59.656 47.2719Z" fill="white"/>
</g>
<mask id="mask4_1_950" style="mask-type:luminance" maskUnits="userSpaceOnUse" x="19" y="20" width="42" height="40">
<path d="M60.392 20.8H19.6V59.192H60.392V20.8Z" fill="white"/>
</mask>
<g mask="url(#mask4_1_950)">
<path d="M59.656 53.0322C59.248 53.0322 58.92 52.7042 58.92 52.2962V50.4482C58.92 50.0402 59.248 49.7122 59.656 49.7122C60.064 49.7122 60.392 50.0402 60.392 50.4482V52.2962C60.4 52.7042 60.064 53.0322 59.656 53.0322Z" fill="white"/>
</g>
<mask id="mask5_1_950" style="mask-type:luminance" maskUnits="userSpaceOnUse" x="19" y="20" width="42" height="40">
<path d="M60.392 20.8H19.6V59.192H60.392V20.8Z" fill="white"/>
</mask>
<g mask="url(#mask5_1_950)">
<path d="M57.912 59.1999H22.088C20.72 59.1999 19.608 58.0879 19.608 56.7199V26.8159C19.608 25.4479 20.72 24.3359 22.088 24.3359H57.92C59.288 24.3359 60.4 25.4479 60.4 26.8159V36.8639H58.92V26.8159C58.92 26.2639 58.472 25.8079 57.92 25.8079H22.088C21.536 25.8079 21.088 26.2559 21.088 26.8159V56.7199C21.088 57.2719 21.536 57.7199 22.088 57.7199H57.92C58.472 57.7199 58.92 57.2719 58.92 56.7199V52.2959H60.4V56.7199C60.4 58.0799 59.28 59.1999 57.912 59.1999Z" fill="white"/>
</g>
<path d="M59.656 30.584H20.344V32.064H59.656V30.584Z" fill="white"/>
<mask id="mask6_1_950" style="mask-type:luminance" maskUnits="userSpaceOnUse" x="19" y="20" width="42" height="40">
<path d="M60.392 20.8H19.6V59.192H60.392V20.8Z" fill="white"/>
</mask>
<g mask="url(#mask6_1_950)">
<path d="M27.4479 28.4321C27.0399 28.4321 26.7119 28.1041 26.7119 27.6961V21.5441C26.7119 21.1361 27.0399 20.8081 27.4479 20.8081C27.8559 20.8081 28.1839 21.1361 28.1839 21.5441V27.6961C28.1839 28.1041 27.8559 28.4321 27.4479 28.4321Z" fill="white"/>
</g>
<mask id="mask7_1_950" style="mask-type:luminance" maskUnits="userSpaceOnUse" x="19" y="20" width="42" height="40">
<path d="M60.392 20.8H19.6V59.192H60.392V20.8Z" fill="white"/>
</mask>
<g mask="url(#mask7_1_950)">
<path d="M33.7279 28.4321C33.3199 28.4321 32.9919 28.1041 32.9919 27.6961V21.5441C32.9919 21.1361 33.3199 20.8081 33.7279 20.8081C34.1359 20.8081 34.4639 21.1361 34.4639 21.5441V27.6961C34.4639 28.1041 34.1359 28.4321 33.7279 28.4321Z" fill="white"/>
</g>
<mask id="mask8_1_950" style="mask-type:luminance" maskUnits="userSpaceOnUse" x="19" y="20" width="42" height="40">
<path d="M60.392 20.8H19.6V59.192H60.392V20.8Z" fill="white"/>
</mask>
<g mask="url(#mask8_1_950)">
<path d="M40 28.4321C39.592 28.4321 39.264 28.1041 39.264 27.6961V21.5441C39.264 21.1361 39.592 20.8081 40 20.8081C40.408 20.8081 40.736 21.1361 40.736 21.5441V27.6961C40.736 28.1041 40.408 28.4321 40 28.4321Z" fill="white"/>
</g>
<mask id="mask9_1_950" style="mask-type:luminance" maskUnits="userSpaceOnUse" x="19" y="20" width="42" height="40">
<path d="M60.392 20.8H19.6V59.192H60.392V20.8Z" fill="white"/>
</mask>
<g mask="url(#mask9_1_950)">
<path d="M46.272 28.4321C45.864 28.4321 45.5359 28.1041 45.5359 27.6961V21.5441C45.5359 21.1361 45.864 20.8081 46.272 20.8081C46.68 20.8081 47.0079 21.1361 47.0079 21.5441V27.6961C47.0159 28.1041 46.68 28.4321 46.272 28.4321Z" fill="white"/>
</g>
<mask id="mask10_1_950" style="mask-type:luminance" maskUnits="userSpaceOnUse" x="19" y="20" width="42" height="40">
<path d="M60.392 20.8H19.6V59.192H60.392V20.8Z" fill="white"/>
</mask>
<g mask="url(#mask10_1_950)">
<path d="M52.552 28.4321C52.144 28.4321 51.816 28.1041 51.816 27.6961V21.5441C51.816 21.1361 52.144 20.8081 52.552 20.8081C52.96 20.8081 53.288 21.1361 53.288 21.5441V27.6961C53.288 28.1041 52.96 28.4321 52.552 28.4321Z" fill="white"/>
</g>
<mask id="mask11_1_950" style="mask-type:luminance" maskUnits="userSpaceOnUse" x="19" y="20" width="42" height="40">
<path d="M60.392 20.8H19.6V59.192H60.392V20.8Z" fill="white"/>
</mask>
<g mask="url(#mask11_1_950)">
<path d="M39.9999 35.952C35.1279 35.952 31.1679 39.912 31.1679 44.784C31.1679 49.656 35.1279 53.616 39.9999 53.616C44.8719 53.616 48.8319 49.656 48.8319 44.784C48.8319 39.912 44.8719 35.952 39.9999 35.952ZM39.9999 55.088C34.3199 55.088 29.6959 50.464 29.6959 44.784C29.6959 39.104 34.3199 34.48 39.9999 34.48C45.6799 34.48 50.3039 39.104 50.3039 44.784C50.3039 50.464 45.6799 55.088 39.9999 55.088Z" fill="white"/>
</g>
<mask id="mask12_1_950" style="mask-type:luminance" maskUnits="userSpaceOnUse" x="19" y="20" width="42" height="40">
<path d="M60.392 20.8H19.6V59.192H60.392V20.8Z" fill="white"/>
</mask>
<g mask="url(#mask12_1_950)">
<path d="M39.9999 32.0642C32.9839 32.0642 27.2799 37.7682 27.2799 44.7842C27.2799 51.8002 32.9839 57.5042 39.9999 57.5042C47.0159 57.5042 52.7199 51.8002 52.7199 44.7842C52.7199 37.7682 47.0159 32.0642 39.9999 32.0642ZM39.9999 58.9762C32.1759 58.9762 25.7999 52.6082 25.7999 44.7762C25.7999 36.9522 32.1679 30.5762 39.9999 30.5762C47.8319 30.5762 54.1999 36.9442 54.1999 44.7762C54.1999 52.6082 47.8239 58.9762 39.9999 58.9762Z" fill="white"/>
</g>
</g>
<defs>
<clipPath id="clip0_1_950">
<rect width="80" height="80" fill="white"/>
</clipPath>
</defs>
</svg>
