<svg viewBox="0 0 24 24" xmlns="http://www.w3.org/2000/svg">
    <g fill="none" fill-rule="evenodd">
        <path d="M0 0h24v24H0z"/>
        <path d="M13.556 3.4a2.456 2.456 0 0 1 2.45 2.294l.005.162v.655H19a.9.9 0 0 1 .113 1.793L19 8.311h-.656V18.3a2.456 2.456 0 0 1-2.294 2.45l-.161.006H8.11a2.456 2.456 0 0 1-2.45-2.295l-.005-.161-.001-9.989H5a.9.9 0 0 1-.113-1.793L5 6.511h2.988v-.655a2.456 2.456 0 0 1 2.295-2.45l.161-.006h3.112zm2.988 4.911H7.455V18.3c0 .33.243.602.56.648l.096.008h7.778c.329 0 .602-.243.648-.56l.007-.096V8.311zm-6.1 2.089a.9.9 0 0 1 .893.787l.007.113v4.667a.9.9 0 0 1-1.793.113l-.007-.113V11.3a.9.9 0 0 1 .9-.9zm3.112 0a.9.9 0 0 1 .893.787l.007.113v4.667a.9.9 0 0 1-1.793.113l-.007-.113V11.3a.9.9 0 0 1 .9-.9zm0-5.2h-3.112a.656.656 0 0 0-.648.559l-.007.097-.001.655h4.423v-.655a.656.656 0 0 0-.559-.649l-.096-.007z" fill="currentColor" fill-rule="nonzero"/>
    </g>
</svg>
