<svg width="80" height="80" viewBox="0 0 80 80" fill="none" xmlns="http://www.w3.org/2000/svg">
<g clip-path="url(#clip0_1_938)">
<path d="M40.0001 72.8881C58.1681 72.8881 72.8881 58.1601 72.8881 40.0001C72.8881 21.8401 58.1681 7.11206 40.0001 7.11206C21.8321 7.11206 7.11206 21.8321 7.11206 40.0001C7.11206 58.1681 21.8321 72.8881 40.0001 72.8881Z" fill="#EF4130"/>
<path d="M44.76 40.696H40C39.616 40.696 39.304 40.384 39.304 40V33.472C39.304 32.976 39.552 32.528 39.968 32.272C40.392 32.008 40.912 31.984 41.368 32.2C42.536 32.768 44.016 32.44 44.84 31.424C45.4 30.736 45.6 29.872 45.416 28.984C45.192 27.904 44.312 27.024 43.232 26.8C42.584 26.664 41.928 26.736 41.352 27.024C40.904 27.248 40.384 27.224 39.96 26.96C39.544 26.696 39.288 26.248 39.288 25.752V21.496C39.288 21.112 39.6 20.8 39.984 20.8H56.296C57.888 20.8 59.184 22.096 59.184 23.688V26.048C59.184 26.432 58.872 26.744 58.488 26.744C58.104 26.744 57.792 26.432 57.792 26.048V23.688C57.792 22.864 57.12 22.192 56.296 22.192H40.696V25.752C41.608 25.352 42.568 25.24 43.528 25.44C45.144 25.784 46.456 27.096 46.784 28.704C47.048 29.992 46.736 31.304 45.92 32.304C45.104 33.304 43.896 33.88 42.608 33.88C41.96 33.88 41.336 33.736 40.752 33.448L40.696 39.296H44.752C45.136 39.296 45.448 39.608 45.448 39.992C45.456 40.384 45.144 40.696 44.76 40.696Z" fill="white"/>
<path d="M58.504 37.88C58.12 37.88 57.808 37.568 57.808 37.184V34.744C57.808 34.36 58.12 34.048 58.504 34.048C58.888 34.048 59.2 34.36 59.2 34.744V37.184C59.2 37.568 58.888 37.88 58.504 37.88Z" fill="white"/>
<path d="M58.504 29.1841C58.12 29.1841 57.808 28.8721 57.808 28.4881V26.0481C57.808 25.6641 58.12 25.3521 58.504 25.3521C58.888 25.3521 59.2 25.6641 59.2 26.0481V28.4881C59.2 28.8721 58.888 29.1841 58.504 29.1841Z" fill="white"/>
<path d="M58.504 40.696H54.616C54.232 40.696 53.92 40.384 53.92 40C53.92 39.616 54.232 39.304 54.616 39.304H57.808V37.184C57.808 36.8 58.12 36.488 58.504 36.488C58.888 36.488 59.2 36.8 59.2 37.184V40C59.2 40.384 58.888 40.696 58.504 40.696Z" fill="white"/>
<path d="M56.312 59.2H40C39.616 59.2 39.304 58.888 39.304 58.504V53.816C39.304 53.432 39.616 53.12 40 53.12C40.384 53.12 40.696 53.432 40.696 53.816V57.808H56.312C57.136 57.808 57.808 57.136 57.808 56.312V40.696H53.888C54.304 41.616 54.432 42.576 54.232 43.552C53.896 45.184 52.576 46.496 50.96 46.832C49.672 47.096 48.36 46.784 47.36 45.968C46.36 45.152 45.784 43.944 45.784 42.656C45.784 41.992 45.936 41.352 46.24 40.76L40.696 40.704V44.624C40.696 45.008 40.384 45.32 40 45.32C39.616 45.32 39.304 45.008 39.304 44.624V40C39.304 39.616 39.616 39.304 40 39.304H46.216C46.712 39.304 47.168 39.552 47.424 39.976C47.688 40.408 47.712 40.928 47.48 41.384C47.28 41.784 47.176 42.208 47.176 42.656C47.176 43.528 47.56 44.336 48.24 44.888C48.928 45.448 49.792 45.656 50.68 45.472C51.76 45.248 52.648 44.36 52.872 43.272C53.008 42.616 52.928 41.968 52.632 41.384C52.4 40.936 52.424 40.408 52.688 39.984C52.944 39.56 53.4 39.312 53.896 39.312H58.512C58.896 39.312 59.208 39.624 59.208 40.008V56.32C59.2 57.904 57.904 59.2 56.312 59.2Z" fill="white"/>
<path d="M40 59.2H23.688C22.096 59.2 20.8 57.904 20.8 56.312V40C20.8 39.616 21.112 39.304 21.496 39.304H24.336C24.72 39.304 25.032 39.616 25.032 40C25.032 40.384 24.72 40.696 24.336 40.696H22.192V56.312C22.192 57.136 22.864 57.808 23.688 57.808H39.304V52.784C38.312 53.416 37.168 53.656 36.024 53.448C34.36 53.136 33.008 51.824 32.656 50.176C32.384 48.888 32.696 47.576 33.512 46.568C34.328 45.568 35.536 44.992 36.824 44.992C37.688 44.992 38.528 45.256 39.24 45.752L39.288 40.712H33.888C33.504 40.712 33.192 40.4 33.192 40.016C33.192 39.632 33.504 39.32 33.888 39.32H40C40.384 39.32 40.696 39.632 40.696 40.016V45.736C40.696 46.272 40.408 46.752 39.936 46.992C39.464 47.24 38.896 47.2 38.456 46.896C37.976 46.568 37.424 46.392 36.84 46.392C35.968 46.392 35.152 46.784 34.608 47.456C34.048 48.144 33.848 49.008 34.032 49.896C34.264 51 35.168 51.88 36.288 52.088C37.064 52.232 37.832 52.072 38.456 51.632C38.896 51.328 39.464 51.288 39.936 51.536C40.408 51.784 40.696 52.264 40.696 52.792V58.512C40.696 58.888 40.384 59.2 40 59.2Z" fill="white"/>
<path d="M40 40.696H32.528C32.016 40.696 31.544 40.424 31.288 39.984C31.032 39.552 31.024 39.04 31.272 38.608C31.512 38.184 31.632 37.72 31.632 37.232C31.632 36.36 31.248 35.552 30.568 35C29.88 34.44 29.016 34.24 28.128 34.416C27.024 34.648 26.144 35.544 25.928 36.664C25.8 37.3361 25.904 38 26.216 38.584C26.464 39.04 26.456 39.568 26.192 40.016C25.936 40.448 25.48 40.712 24.976 40.712H21.496C21.112 40.696 20.8 40.384 20.8 40V23.688C20.8 22.096 22.096 20.8 23.688 20.8H40C40.384 20.8 40.696 21.112 40.696 21.496V24.992C40.696 25.376 40.384 25.688 40 25.688C39.616 25.688 39.304 25.376 39.304 24.992V22.192H23.688C22.864 22.192 22.192 22.864 22.192 23.688V39.304H24.976C24.52 38.376 24.368 37.392 24.56 36.392C24.88 34.728 26.2 33.384 27.848 33.048C29.136 32.784 30.448 33.096 31.448 33.912C32.448 34.728 33.024 35.936 33.024 37.224C33.024 37.944 32.84 38.656 32.48 39.288L39.304 39.304V34.232C39.304 33.848 39.616 33.536 40 33.536C40.384 33.536 40.696 33.848 40.696 34.232V40C40.696 40.384 40.384 40.696 40 40.696Z" fill="white"/>
<path d="M40 79.9999C36.768 79.9999 33.56 79.6159 30.448 78.8479L31.024 76.4799C34.16 77.2479 37.416 77.5919 40.664 77.5519L40.704 79.9839C40.472 79.9999 40.24 79.9999 40 79.9999ZM50.928 78.4879L50.264 76.1439C53.384 75.2639 56.376 73.9679 59.168 72.3119L60.416 74.4079C57.44 76.1759 54.248 77.5519 50.928 78.4879ZM20.824 75.1119C17.8 73.4559 14.992 71.4079 12.48 69.0319L14.152 67.2639C16.512 69.5039 19.144 71.4239 21.992 72.9759L20.824 75.1119ZM68.536 68.0319L66.8 66.3279C69.08 64.0079 71.048 61.4079 72.656 58.5919L74.768 59.7999C73.056 62.7999 70.96 65.5679 68.536 68.0319ZM5.96 61.0159C4.136 58.0719 2.712 54.9039 1.712 51.5999L4.04 50.8959C4.976 53.9919 6.32 56.9679 8.032 59.7359L5.96 61.0159ZM78.68 50.2399L76.328 49.6159C77.152 46.4959 77.568 43.2639 77.568 39.9999C77.568 39.1119 77.536 38.2159 77.472 37.3359L79.904 37.1679C79.968 38.1039 80 39.0559 80 39.9999C80 43.4719 79.552 46.9119 78.68 50.2399ZM0.024 41.4159C0.008 40.9439 0 40.4719 0 39.9999C0 37.0079 0.328 34.0319 0.984 31.1359L3.36 31.6799C2.744 34.3919 2.432 37.1919 2.432 39.9999C2.432 40.4479 2.44 40.8879 2.456 41.3359L0.024 41.4159ZM75.552 27.8319C74.504 24.7679 73.056 21.8479 71.248 19.1439L73.272 17.7919C75.192 20.6719 76.736 23.7839 77.856 27.0399L75.552 27.8319ZM6.712 22.5759L4.552 21.4479C6.152 18.3919 8.152 15.5519 10.488 12.9999L12.288 14.6479C10.088 17.0399 8.216 19.7119 6.712 22.5759ZM64.864 11.8399C62.432 9.68791 59.728 7.85591 56.832 6.40791L57.928 4.23191C61.016 5.78391 63.888 7.72791 66.48 10.0159L64.864 11.8399ZM19.704 8.38391L18.384 6.33591C21.296 4.46391 24.432 2.97591 27.72 1.91991L28.464 4.23991C25.384 5.23191 22.432 6.63191 19.704 8.38391ZM47.672 3.21591C44.52 2.56791 41.232 2.31991 38 2.48791L37.872 0.0559076C41.312 -0.120092 44.808 0.135908 48.168 0.831908L47.672 3.21591Z" fill="#EF4130"/>
</g>
<defs>
<clipPath id="clip0_1_938">
<rect width="80" height="80" fill="white"/>
</clipPath>
</defs>
</svg>
